<?xml version="1.0"?>
<svg id="Layer_1" data-name="Layer 1" xmlns="http://www.w3.org/2000/svg" viewBox="0 0 811.29 437.69">
  <defs>
    
  </defs>
  <path class="cls-2" d="M397.55,226.83c.55.1,1.1.2,1.64.3l-1.64-.3ZM402.03,227.58c.64.1,1.28.18,1.92.26l-1.92-.26ZM406.77,228.15c.62.06,1.24.11,1.87.16l-1.87-.16ZM409.31,228.35c.53.04,1.05.07,1.58.1l-1.58-.1ZM411.65,228.49c.62.03,1.25.05,1.87.07l-1.87-.07ZM414.15,228.57c1.39.04,2.79.04,4.18,0h-4.18ZM418.99,228.56c.65-.02,1.3-.04,1.95-.08l-1.95.08ZM421.55,228.46c.56-.03,1.12-.07,1.68-.1l-1.68.1ZM423.81,228.31c.61-.05,1.22-.1,1.83-.15l-1.83.15ZM428.76,227.81c.47-.06.94-.12,1.4-.19l-1.4.19ZM514.35,70.38c-.5-.27-1.02-.52-1.55-.74l1.55.74ZM509.26,68.56c-.65-.13-1.3-.23-1.96-.3l1.96.3ZM631.08,163.69l-.35.05.35-.05ZM176.33,136.05c-2.26-2.07-3.97-4.67-5-7.55-.83-2.41-1.91-5.43-1.91-7.99.05-11.54,6.79-20.11,14.04-24.08,3.29-1.8,4.52-3.04,5.02-3.67-.24-.11-.5-.17-.76-.19-9.87,0-14.93-3.83-17.41-7.08-2.35-3.04-3.56-6.96-3.56-11.24,0-2.08.29-4.26.87-6.49,2.78-4.59,5.42-3.33,7.04-.98,1.03,1.47,8.1,6.48,16.8,7.27,6.33.6,9.75,3.7,11.52,6.17,2.05,2.87,2.83,6.32,2.83,9.25,0,1.2-.14,2.33-.39,3.33-.95,3.87-5.03,7.36-10.71,11.8l-3.22,2.67c-4.72,4.13-7.31,8.72-7.31,12.61,0,.97.17,1.92.5,2.8.14.36.3.71.49,1.03,2.11,3.57,8.06,5.81,16.7,2.78,3.99-1.38,11.68-6.22,16.38-10.88,5.52-5.51,12.9-6.83,19.99-7.39,6.16-.46,9.95-1.97,12.62-4.97,7.89-8.89,15.48-10.14,22.58-10.67,2.72-.21,2.87-.4,3.22-.88,3.92-5.22,7.94-7.98,11.55-9.58,2.75-1.22,5.26-1.78,7.32-2.23l2.5-.61.62-.22c3.95-1.27,7.02-2.33,15.06-7.77l.34-.22h0s.34-.21.34-.21h0s.34-.2.34-.2h0s.34-.2.34-.2h0s.34-.18.34-.18h.01s.34-.18.34-.18h.01s.34-.17.34-.17h.01s.34-.16.34-.16h.01s.34-.15.34-.15h.01s.34-.15.34-.15h.02s.34-.13.34-.13h.02s.34-.13.34-.13l.36-.12h.02s.34-.11.34-.11h.02s.34-.1.34-.1h.02s.34-.1.34-.1h.03s.34-.09.34-.09h.03s.34-.08.34-.08h.03s.34-.08.34-.08h.03s.34-.07.34-.07h.03s.34-.06.34-.06h.03s.34-.05.34-.05h.03s.34-.05.34-.05h.03s.33-.04.33-.04h.04s.34-.03.34-.03h.04s.33-.03.33-.03h.04s.33-.02.33-.02h.04s.33-.02.33-.02h.37s.04-.01.04-.01h.33s.41,0,.41,0h.33s.04,0,.04,0h.04c.23,0,.47.02.7.03l.32.02h.05s.32.03.32.03h.05s.32.03.32.03h.05s.32.04.32.04h.05s.31.04.31.04h.05s.31.05.31.05h.05s.31.06.31.06h.05s.31.06.31.06h.06s.3.06.3.06h.06s.3.06.3.06h.06c.48.1.95.21,1.42.32l.29.07.06.02c.47.12.93.25,1.38.39l.27.08.07.02c.9.28,1.78.61,2.63.94l.24.1.31.13c17.21-23.38,44.41-38.93,75.33-40.34h0c1.52-.08,3.05-.11,4.57-.11,1.01,0,2.01.02,3.02.05.5.02,1,.04,1.5.06h0c.5.02,1,.05,1.49.08,29.92,1.8,56.27,16.87,73.24,39.39,2.42-.84,5.06-1.45,7.76-1.64h.07s.25-.02.25-.02h.27s.06-.02.06-.02h.07s.26,0,.26,0h.07s.26,0,.26,0h.07s.27,0,.27,0h.33s.07,0,.07,0h.33s.27.02.27.02h.06s.27.01.27.01h.06s.27.02.27.02h.05s.27.03.27.03h.05s.28.03.28.03h.05c.66.07,1.31.17,1.96.31l.29.06h.04s.28.08.28.08h.04s.29.08.29.08h.04s.29.09.29.09h.03s.3.09.3.09h.03s.29.1.29.1h.03s.3.11.3.11h.03s.32.12.32.12l.3.11h.02s.3.12.3.12h.02s.3.13.3.13h.02c.52.23,1.04.47,1.55.75h0s.3.17.3.17h0s.3.18.3.18h0s.3.19.3.19h0s.3.19.3.19h0s.3.2.3.2c5.54,3.77,8.75,5.43,11.48,6.51,1.23.49,2.37.86,3.58,1.25l.64.22,2.52.61c1.37.3,2.93.65,4.62,1.2,4.24,1.38,9.3,4.06,14.21,10.61.36.48.51.67,3.25.88,7.1.53,14.68,1.78,22.6,10.67,2.65,3,6.42,4.51,12.57,4.97,7.14.56,14.49,1.88,20,7.39,4.7,4.65,12.38,9.49,16.38,10.88,8.64,3.02,14.62.79,16.68-2.78.45-.75.75-1.58.91-2.45.08-.45.12-.91.12-1.38,0-3.89-2.6-8.49-7.3-12.61l-.59-.49-2.67-2.18c-5.66-4.44-9.74-7.93-10.72-11.8-.26-1-.37-2.13-.37-3.33,0-2.94.8-6.39,2.81-9.25,1.79-2.47,5.24-5.57,11.53-6.17,8.75-.79,15.78-5.8,16.8-7.27,1.65-2.35,4.26-3.61,7.03.98.59,2.23.88,4.41.88,6.49,0,4.31-1.2,8.2-3.55,11.24-2.5,3.25-7.54,7.08-17.43,7.08-.21,0-.5.1-.74.19.49.64,1.71,1.87,5.02,3.67,7.25,3.97,13.99,12.54,14.05,24.08,0,2.56-1.07,5.57-1.93,7.99-.9,2.53-2.32,4.84-4.18,6.79-.25.26-.51.52-.79.77-4.08,3.79-10.89,6.77-22.22,6.09-1.19-.07-2.38-.18-3.57-.32-.29,5.72-1.86,12.51-4.07,15.94-.67,1.08-.8,1.8-.8,2.15,0,.15.01.23.01.3.07.02,5.03,2.95,5.03,2.95l.8.41s.47.22.53.27c.07-.03,1.71-.1,1.71-.1l.32-.05h.03c3.1-.3,7.83-1.82,9.85,3.8.53,1.49.85,2.79,1.15,3.94.61,2.35,1.14,4.1,3.2,5.68,0,0,1.02-.87,2.17-1.9.89-.79,1.77-1.6,2.63-2.42,1.43-1.47,4.09-.72,6,0,1.94.73,4.33,2.4,6.02,3.37,1.7.96,2.64,2.17,3.13,3.62.51,1.44,1.7,2.4,3.5,3.36,1.74.99,4.24,4.16,4.24,8.45,0,.66.07,1.22.26,1.81.13.39.3.81.54,1.27,2.44,4.91.48,7.38-.93,8.43-1.9,1.42-5.24,2.01-8.39,1.49l.03.81-4.59-.61c-1.78-.22-4.13.23-5.53.52l-.33.09c-3.27.65-7.54-.46-9.94-4.36-.09-.14-.18-.29-.26-.44-1.23-2.15-3.13-4.15-4.07-4.7-1.35.37-3.48.87-6.01.61-2.35-.24-5.06-1.14-7.82-3.42-.46-.38-.92-.8-1.37-1.25-4.05-4.07-9.4-4.9-12.77-4.38l-2,.36c-4.14.75-9.31,1.7-14.08-1.21-1.19-.72-2.9-1.47-4.58-2.18-4.33-1.89-8.82-3.83-9.43-7.94-.1-.73-.9-2.07-1.55-3.13-.57-.94-1.2-1.97-1.68-3.07-.46-1.05-.8-2.17-.83-3.34-1.42.36-2.89.51-4.35.44-.52-.03-1.03-.08-1.54-.15l-1.88-.29c-3.17-.54-9.81-1.63-11.93-.86-4.21,1.52-17.47,2.25-21.1,1.42,0,0-1.34-.29-2.6-.56-1.21,1.25-2.56,2.42-3.98,3.47,2.66.14,5-.19,6.61.23l3.34.88c1.07-.32,3.67-.28,5.15-.14l3.91.29,4.46.43c2.15.43,4.43,1.36,4.04,5.57-.15,1.3-.88,3.13-1.97,4.21-.6.66-2.93,4.04-3.45,5.11l-.17.33c-.91,1.94-2.25,3.71-6.17,3.71-.5,0-1,.01-1.49.06-.12.32-.44.91-.44.91-.88,2.01-2.16,4.8-4.59,6.42l-.65.47c-1.96,1.4-5.21,3.7-10.2,1.89l-1.72-.61c-4.35-1.57-10.92-3.92-14.24-5.73l-.47-.26c-3.09-1.69-3.78-2.03-4.9-1.87l-.62.1c-2.37.33-6.84.93-9.93-4.19l-.28-.44c-14.65,20.11-36.66,34.5-62.07,39.19l-.11.02c-.87.16-1.74.3-2.61.44l-.32.05-1.19.18c-.46.07-.93.13-1.4.19l-.85.11-1.34.14-.93.1c-.61.06-1.22.11-1.83.15l-.58.04c-.56.04-1.11.08-1.68.1l-.61.03c-.65.03-1.3.06-1.95.08h-.66c-1.39.05-2.79.04-4.18,0h-.62c-.62-.03-1.25-.05-1.87-.08l-.76-.04c-.53-.03-1.05-.06-1.58-.1l-.67-.04c-.62-.05-1.25-.1-1.87-.16l-.92-.1-1.22-.13-.68-.08c-.64-.08-1.28-.17-1.92-.27l-.77-.11-1.36-.21-.7-.12c-.55-.1-1.1-.19-1.64-.3l-1.18-.24-.61-.12c-.81-.18-1.62-.35-2.43-.54l-.21-.05-1.26-.31-.65-.17c-.75-.19-1.5-.4-2.25-.61l-.27-.08c-22.28-6.43-41.32-20.46-54.16-39.1l-1.69,2.57c-3.06,5.12-7.52,4.52-9.92,4.19l-.62-.1c-1.12-.16-1.83.18-4.89,1.87l-.49.26c-3.31,1.81-9.86,4.16-14.23,5.73l-1.72.61c-4.98,1.81-8.25-.49-10.17-1.89l-.67-.47c-2.44-1.61-3.7-4.41-4.6-6.42,0,0-.29-.59-.44-.91-.5-.05-1-.07-1.5-.06-3.88,0-5.27-1.78-6.16-3.71l-.16-.33c-.53-1.06-2.83-4.44-3.47-5.11-1.08-1.08-1.84-2.91-1.96-4.21-.4-4.21,1.91-5.14,4.04-5.57l4.46-.43,3.92-.29c1.46-.13,4.07-.17,5.13.14l3.34-.88c1.59-.41,3.95-.08,6.59-.23-1.4-1.06-2.73-2.22-3.97-3.47-1.27.27-2.6.56-2.6.56-3.64.83-16.87.1-21.06-1.42-2.13-.77-8.76.32-11.95.86l-1.91.29c-1.95.3-3.94.2-5.85-.29-.1,2.4-1.4,4.58-2.51,6.42-.65,1.06-1.47,2.4-1.57,3.13-.57,4.1-5.11,6.05-9.43,7.94-1.68.71-3.37,1.46-4.56,2.18-4.74,2.91-9.93,1.96-14.08,1.21l-2.01-.36c-3.34-.52-8.7.32-12.76,4.38-6.21,6.2-12.4,4.84-15.21,4.07-.93.55-2.85,2.55-4.07,4.7-2.35,4.26-6.83,5.47-10.21,4.8l-.34-.09c-1.39-.29-3.7-.75-5.48-.52l-4.62.61.05-.81c-3.16.51-6.52-.08-8.42-1.49-1.4-1.04-3.36-3.51-.88-8.43.57-1.18.77-2,.77-3.09,0-4.29,2.48-7.46,4.22-8.45,1.82-.96,3.02-1.91,3.51-3.36.48-1.45,1.42-2.66,3.12-3.62,1.69-.96,4.09-2.63,6.01-3.37,1.92-.72,4.57-1.47,6.02,0,1.46,1.42,4.8,4.32,4.8,4.32,3.07-2.37,2.77-5.09,4.36-9.63,1.99-5.62,6.74-4.1,9.83-3.81l.35.05s1.66.07,1.71.1c.09-.05.55-.27.55-.27l.77-.41s4.98-2.93,5.03-2.95c.02-.06.02-.15.02-.3,0-.35-.12-1.08-.79-2.15-2.22-3.43-3.78-10.22-4.07-15.94-.8.1-1.57.17-2.33.23-12.07.97-19.24-2.08-23.43-6.02h0Z"></path>
  <path class="cls-1" d="M206.04,137.65s-1.01,9.73,3.38,18.31c0,0,3.25,4.6-.12,7.56l-6.72,3.9s-.9.67-3.9.44c0,0-4.14-1.03-5.52.8,0,0-1.2,3.52-2.71,6.41,0,0-3.06,7.03-8.12,9.28,0,0-4.03.92-5.26,4.42,0,0-1.3,2.45-3.91,2.56,0,0-1.94.62-3.23,4.94,0,0-.7,2.8-.66,4.95,0,0,3.31-.43,5.47.35,0,0,5.31,1.78,7.68-2.59,0,0,4.59-7.85,7.99-6.67,0,0,6.83,2.29,11.66-2.7,0,0,6.63-7.24,15.99-5.75,0,0,10.54,2.14,13.83-.3,0,0,6.65-3.48,9.14-4.34,0,0,3.05-.9,3.37-4.24,0,0,1.86-4.7,3.21-6.27l-5.03-.06s-4.55,7.66-12.29,9.97c0,0-4.23,1.69-12.73.32,0,0-12.2-2.76-22.91,8.81,0,0-1.46,2.12-3.55,1.27,0,0,5.92-10.09,18.92-12.49,0,0,4.25-.9,7.8-.33,0,0,17.51.51,25.62-16.72,0,0-.88-14.69,3-18.17,0,0,1.5-.46,1.2,2.38,0,0-2.66,15.39,2.34,18.37,0,0,2.9,2.28,8.28,1.44,0,0,8.14-1.95,14.77-.81,0,0,10.18,2.42,18.93,1.3,0,0-2.27-3.48-1.83-7.64,0,0,1.25-2.98,2.69-1.06,0,0,3.37,11.12,12.57,14.46,0,0,8.22,2.99,8.08,13.41,0,0-1.26,1.43-12.15,5.3,0,0-4.07,1.29-5.38-1.76,0,0-5.25-11.24-9.83-10.9l-8.59.7s-2.93.75-.77,3.1c0,0,2.94,3.91,4.14,6.24,0,0,.35,1.99,3.11,1.57,0,0,3.83-1.9,5.99,5.23,0,0,1.98,3.56,5.33,4.7,0,0,3.13,1.05,6.07-.6,0,0,14.18-5.21,16.65-7.05,0,0,3.07-1.72,5.5-.89,0,0,4.25,1.01,6.01-2.34l4.4-6.8s.96-1.67.83-3.78c0,0,.4-2.08-1.36-4.2,0,0-1.66-1.76-1.92-3.03l-3.13-7.36s-1.27-1.97-2.66-2.78l-4.18.31s2.88,7.36,4.99,10.35c0,0,2.85,4.36,2.71,7.14,0,0-.19,1.94-.96,2.76,0,0-.96,1.54-1.35,2.29,0,0-1.27,2.75-2.3,3.36,0,0-1.78,1.05-2.21,1.1,0,0-.77.21-.2-1.17,0,0,2.34-4.93,2.19-7.57,0,0,.45-2.75-1.49-4.36,0,0-4.56-7.19-5.21-9.34,0,0-1.43-2.88-2.19-3.37,0,0-1.59-2.09.98-3.07,0,0,6.4-1.45,7.55-2.23,0,0,3.08-.93,5.08-7.34,0,0,2.75-7.48,2.71-12.09,0,0,5.4,10.4-3.21,20.99,0,0,6.81,2.01,9.63,0,0,0,8.48-1.24,10.12-1.69,0,0,2.13-.52.92,1,0,0-2.56,3.64-2.78,6.02,0,0-.17,1.9-1.72,3.01,0,0-4.82,3.38-5.25,6.61,0,0-1.03,3.11,1.1,2.37,0,0,2.89-1.34,3.91,0,0,0,.3.14-.81,1.39,0,0-2.9,2.52-3.11,5.9,0,0,.54,3.9,1.56,5.16,0,0,1.3,1.81,3.37,1.23,0,0,.55-.44,1.53-.14,0,0,1.02,0,3.68-.92,0,0,4.04-1.11,5.39-1.59,0,0,5.14-1.84,7.68-1.71,0,0,1.65-.18,3.75.24,0,0,6.43.73,10.71-4,0,0,3.26-2.58,4.37-.08,0,0,7.82,10.49,20.48,7.73,0,0-10.07-4.14-12.68-9.78,0,0-.35-4.79-5.62-11.44,0,0-1.61-2.21-.06-2.78,0,0,.9-.67,2.87,1.3,0,0,5.01,4.81,6.82,9.21,0,0,6.22,9.4,15.19,6.24,0,0-7.04-2.72-10.35-7.78,0,0-2.05-6.86-8.92-11.96,0,0-.27-7.71-3.48-12.04,0,0-1.63-7.24-2.07-8.93,0,0-1.73-6.36-1.72-8.11,0,0,.57-8.3-4.78-14.77,0,0-3.59-6.91-9.17-11.73,0,0-4.24-5.24-7.4-8.46,0,0-4.15-4.87-13.21-11.22,0,0-4.1-2.98-7.1-6.19,0,0-15.97-11.5-27.51-2.27,0,0-7.97,5.42-14.62,7.1,0,0-13.68,1.59-19.51,11.09,0,0-.5,1.75-6.01,2.42,0,0-12.11-1.46-21.02,10.45,0,0-4.14,4.04-12.34,5.03,0,0-13.37-1.37-22.08,8.88,0,0-21.97,19.16-35.07,6.74,0,0-6.79-6.43.97-18.06,0,0,4.92-5.94,13.32-12.15,0,0,6.81-4.8,3.69-12.26,0,0-1.65-7.21-11.86-7.4,0,0-12.81-2.47-17.99-8.94,0,0-5.78,20.37,16.92,20.03,0,0,5.92.88,3.85,5.57,0,0-2.9,4.02-6.79,5.48,0,0-6.85,3-9.94,12.97,0,0-6.92,17.46,9.96,24.19,6.49,2.24,13.99,1.58,20.68.42h0ZM173.55,178.79c.92-.76,2.26-1.2,3.45-.92,2.69.58,1.06,2.9,1.06,2.9-1.09,2.03-4.64,5.47-4.64,5.47-3.16,2.36-5.66-.45-5.66-.45-2.34-2.31.7-3.42.7-3.42,1.77-.72,5.08-3.58,5.08-3.58ZM166.78,189.7s.98.72.46,2.16c0,0-2.51,6.86-2.39,9.16,0,0-5.55.99-6.31-1.75,0,0-.15-1.06.76-2.59,0,0,.94-1.43,1.19-4.04,0,0-.08-6.58,4.18-4.84.85.47,1.51,1.16,2.13,1.9h0ZM362.24,175.78c-.98-.02-1.22-.38-1.11-1.46.65-2.99,3.05-4.28,3.05-4.28,4.49-2.69,5.04,0,5.04,0,.82,4.8-2.97,5.4-2.97,5.4-.76.26-4.02.33-4.02.33ZM375.8,154.36c.08-2.25.27-7.25-2.01-9.04-.84-.67-4.18-4.33-4.18-4.33-.51-.89-.9-.94-.9-.94-.69-.07-1.58,1.53-1.58,1.53-2.38,4.59-4.75,4.03-4.75,4.03-.02-.84.54-1.77.54-1.77,1.15-2.23,2.28-4.46,3.41-6.7.35-.8.67-1.86.67-1.86,2.29-3.56,4.46-.85,4.46-.85.96,1.88,6.11,8.02,6.11,8.02,1.14,1.36,1.25,2.82,1.25,2.82,1.19,8.41-3.01,9.09-3.01,9.09h0ZM328.41,103.61c-.7-1.26-.41-2.55.29-3.78,1.59-2.44,3.08.22,3.08.22,5.5,7.66,1.44,19.14,1.44,19.14-.56-10.56-4.81-15.58-4.81-15.58h0ZM623.58,137.65s1.01,9.73-3.38,18.31c0,0-3.25,4.6.12,7.56l6.72,3.9s.9.67,3.9.44c0,0,4.14-1.03,5.52.8,0,0,1.2,3.52,2.71,6.41,0,0,3.06,7.03,8.12,9.28,0,0,4.03.92,5.25,4.42,0,0,1.3,2.45,3.91,2.56,0,0,1.95.62,3.23,4.94,0,0,.7,2.8.67,4.95,0,0-3.31-.43-5.48.35,0,0-5.31,1.78-7.68-2.59,0,0-4.59-7.85-7.99-6.67,0,0-6.83,2.29-11.66-2.7,0,0-6.63-7.24-15.99-5.75,0,0-10.54,2.14-13.83-.3,0,0-6.65-3.48-9.14-4.34,0,0-3.05-.9-3.37-4.24,0,0-1.86-4.7-3.21-6.27l5.03-.06s4.55,7.66,12.29,9.97c0,0,4.24,1.69,12.73.32,0,0,12.2-2.76,22.91,8.81,0,0,1.47,2.12,3.55,1.27,0,0-5.92-10.09-18.91-12.49,0,0-4.25-.9-7.8-.33,0,0-17.51.51-25.63-16.72,0,0,.88-14.69-2.99-18.17,0,0-1.49-.46-1.2,2.38,0,0,2.66,15.39-2.34,18.37,0,0-2.91,2.28-8.28,1.44,0,0-8.14-1.95-14.76-.81,0,0-10.18,2.42-18.93,1.3,0,0,2.27-3.48,1.83-7.64,0,0-1.25-2.98-2.69-1.06,0,0-3.37,11.12-12.57,14.46,0,0-8.22,2.99-8.08,13.41,0,0,1.26,1.43,12.16,5.3,0,0,4.07,1.29,5.38-1.76,0,0,5.25-11.24,9.82-10.9l8.59.7s2.93.75.77,3.1c0,0-2.94,3.91-4.14,6.24,0,0-.35,1.99-3.11,1.57,0,0-3.83-1.9-6,5.23,0,0-1.97,3.56-5.32,4.7,0,0-3.13,1.05-6.07-.6,0,0-14.18-5.21-16.65-7.05,0,0-3.07-1.72-5.5-.89,0,0-4.25,1.01-6-2.34l-4.4-6.8s-.97-1.67-.83-3.78c0,0-.4-2.08,1.36-4.2,0,0,1.66-1.76,1.92-3.03l3.13-7.36s1.27-1.97,2.66-2.78l4.19.31s-2.88,7.36-4.99,10.35c0,0-2.85,4.36-2.71,7.14,0,0,.19,1.94.96,2.76,0,0,.96,1.54,1.36,2.29,0,0,1.26,2.75,2.29,3.36,0,0,1.78,1.05,2.21,1.1,0,0,.78.21.19-1.17,0,0-2.34-4.93-2.19-7.57,0,0-.45-2.75,1.49-4.36,0,0,4.56-7.19,5.22-9.34,0,0,1.42-2.88,2.19-3.37,0,0,1.59-2.09-.98-3.07,0,0-6.4-1.45-7.55-2.23,0,0-3.08-.93-5.08-7.34,0,0-2.75-7.48-2.71-12.09,0,0-5.4,10.4,3.21,20.99,0,0-6.81,2.01-9.63,0,0,0-8.48-1.24-10.13-1.69,0,0-2.13-.52-.91,1,0,0,2.56,3.64,2.78,6.02,0,0,.16,1.9,1.72,3.01,0,0,4.82,3.38,5.24,6.61,0,0,1.03,3.11-1.1,2.37,0,0-2.89-1.34-3.91,0,0,0-.3.14.81,1.39,0,0,2.9,2.52,3.11,5.9,0,0-.54,3.9-1.56,5.16,0,0-1.3,1.81-3.36,1.23,0,0-.54-.44-1.54-.14,0,0-1.02,0-3.68-.92,0,0-4.04-1.11-5.39-1.59,0,0-5.14-1.84-7.68-1.71,0,0-1.65-.18-3.75.24,0,0-6.43.73-10.71-4,0,0-3.26-2.58-4.36-.08,0,0-7.82,10.49-20.48,7.73,0,0,10.08-4.14,12.69-9.78,0,0,.34-4.79,5.62-11.44,0,0,1.61-2.21.06-2.78,0,0-.9-.67-2.87,1.3,0,0-5.01,4.81-6.82,9.21,0,0-6.23,9.4-15.19,6.24,0,0,7.04-2.72,10.35-7.78,0,0,2.05-6.86,8.93-11.96,0,0,.27-7.71,3.48-12.04,0,0,1.64-7.24,2.07-8.93,0,0,1.73-6.36,1.72-8.11,0,0-.57-8.3,4.78-14.77,0,0,3.58-6.91,9.18-11.73,0,0,4.24-5.24,7.4-8.46,0,0,4.15-4.87,13.21-11.22,0,0,4.1-2.98,7.1-6.19,0,0,15.97-11.5,27.51-2.27,0,0,7.97,5.42,14.63,7.1,0,0,13.67,1.59,19.5,11.09,0,0,.5,1.75,6.01,2.42,0,0,12.11-1.46,21.03,10.45,0,0,4.14,4.04,12.34,5.03,0,0,13.37-1.37,22.07,8.88,0,0,21.97,19.16,35.07,6.74,0,0,6.78-6.43-.97-18.06,0,0-4.92-5.94-13.31-12.15,0,0-6.82-4.8-3.69-12.26,0,0,1.65-7.21,11.86-7.4,0,0,12.81-2.47,17.99-8.94,0,0,5.79,20.37-16.92,20.03,0,0-5.92.88-3.85,5.57,0,0,2.9,4.02,6.79,5.48,0,0,6.85,3,9.94,12.97,0,0,6.92,17.46-9.96,24.19-6.48,2.24-13.98,1.58-20.67.42h0ZM656.07,178.79c-.92-.76-2.26-1.2-3.44-.92-2.69.58-1.06,2.9-1.06,2.9,1.09,2.03,4.64,5.47,4.64,5.47,3.16,2.36,5.66-.45,5.66-.45,2.34-2.31-.71-3.42-.71-3.42-1.77-.72-5.08-3.58-5.08-3.58ZM662.84,189.7s-.98.72-.46,2.16c0,0,2.51,6.86,2.39,9.16,0,0,5.55.99,6.31-1.75,0,0,.15-1.06-.75-2.59,0,0-.94-1.43-1.19-4.04,0,0,.08-6.58-4.18-4.84-.85.47-1.52,1.16-2.13,1.9h0ZM467.38,175.78c.98-.02,1.23-.38,1.11-1.46-.66-2.99-3.05-4.28-3.05-4.28-4.49-2.69-5.04,0-5.04,0-.82,4.8,2.97,5.4,2.97,5.4.76.26,4.01.33,4.01.33h0ZM453.83,154.36c-.08-2.25-.28-7.25,2.01-9.04.85-.67,4.18-4.33,4.18-4.33.51-.89.9-.94.9-.94.68-.07,1.58,1.53,1.58,1.53,2.37,4.59,4.75,4.03,4.75,4.03.02-.84-.54-1.77-.54-1.77-1.15-2.23-2.28-4.46-3.41-6.7-.25-.61-.47-1.23-.67-1.86-2.29-3.56-4.46-.85-4.46-.85-.96,1.88-6.11,8.02-6.11,8.02-.68.8-1.12,1.78-1.26,2.82-1.19,8.41,3.02,9.09,3.02,9.09h0ZM501.22,103.61c.7-1.26.41-2.55-.29-3.78-1.59-2.44-3.08.22-3.08.22-5.5,7.66-1.44,19.14-1.44,19.14.56-10.56,4.81-15.58,4.81-15.58h0Z"></path>
  <path class="cls-2" d="M95.57,262.43v140.59h28.37v-113.76h13.37s20.86-.94,20.86,18.05-18.52,18.52-18.52,18.52h-6.8v32.36l28.37,44.83h33.29l-39.62-57.48s32.59-2.81,32.59-38.22-24.62-44.88-57.44-44.88h-34.47ZM510.34,328.19s12.42-9.66,12.42-27.98-13.31-34.84-41.64-34.84h-47.45v137.65h58.45s41.89-.48,41.89-38.33c0-21.98-8.53-30.39-23.67-36.5ZM487.47,379.06h-25.44v-89.69h13.59s18.48-1.39,18.48,14.73-14.7,14.7-14.7,14.7h-8.47v24.16h16.52c4.33,0,18.13,2.1,18.13,17.98,0,15.87-18.12,18.12-18.12,18.12h0ZM689.23,259.67h26.5v143.36h-26.5v-143.36h0ZM643.63,259.67h26.84v143.36h-26.84v-143.36h0ZM541.99,319.04h27.19v48.06s.95,16.18,16.18,16.18,15.01-16.18,15.01-16.18v-47.83h27.43v49.48s3.52,38.69-41.73,38.69-44.08-34-44.08-40.09v-48.3h0ZM361.69,259.67v65.01s-13.13-10.08-28.15-10.08-40.32,10.55-40.32,43.84,21.57,45.96,40.09,45.96,28.84-12.2,28.84-12.2v10.83h26.72v-143.36h-27.19s0,0,0,0ZM341.05,380.94c-1.41,0-18.99.24-18.99-21.33s19.22-22.28,19.22-22.28c0,0,21.57.7,21.57,21.81s-20.4,21.8-21.81,21.8ZM239.76,314.59c45.49,0,43.61,44.32,43.61,44.32v7.03h-61.66c0,10.08,8.44,18.76,19.93,18.76s17.35-11.02,17.35-11.02l21.8,10.78c-10.08,15.25-23.68,21.34-38.92,21.34-47.36,0-48.3-39.39-48.3-44.31s.71-46.89,46.19-46.89h0ZM222.17,349.75h33.77s-1.41-15.94-16.65-15.94c-15.24,0-17.12,15.94-17.12,15.94Z"></path>
</svg>