<?xml version="1.0"?>
<svg id="Layer_1" data-name="Layer 1" xmlns="http://www.w3.org/2000/svg" viewBox="0 0 811.29 437.69">
  <defs>
    
  </defs>
  <g class="cls-1">
    <path d="M461.69,42.27c.08.61-.8.33-1.23.35-35.39,1.35-64.49,9.82-90.5,34.73-35.13,33.64-47.91,93.24-15.16,132.94,44.55,54,132.46,17.36,125.58-52.89-2.89-29.48-21.41-49.69-49.39-57.84-2.13-.62-7.03-1.26-8.57-2.01-.37-.18-.65-.28-.59-.77.53-7.06,1.71-13.8,4.3-20.41,4.35-11.09,13.15-21.44,23.67-27.12,3.45-1.87,12.17-5.43,15.91-4.85,1.22.19,7.05,3.63,8.55,4.5,84.09,48.57,87.82,169.1,6.93,222.87-74.6,49.59-176.31,11.26-199.69-74.62-24.84-91.25,51.65-177.4,145.02-164.71,12.14,1.65,23.83,5.31,35.15,9.83Z"></path>
    <path d="M357.26,330.03v75.47h-12.7l-.35-3.88-5.4,3.59c-22.66,7.76-34.22-16.88-29.7-36.04,3.7-15.68,19.49-23.13,34.4-17.98v-21.16h13.76ZM343.45,362.87c-7.18-2.78-14.92-2.16-19.29,4.77-3.55,5.63-3.09,14.69-.19,20.52,4,8.05,13.99,8.92,19.46,1.91l.02-27.21Z"></path>
    <path d="M621.15,381.51h-35.28c-.34,15.79,19.64,15.84,29.11,8.47l3.97,11.12c-7.01,4.69-18.86,6.49-27.1,4.94-29.15-5.5-26.41-55.26,3.71-56.63,19.01-.87,26.7,15.3,25.59,32.11ZM607.04,371.64c-1.13-14.5-19.74-14.39-21.17,0h21.17Z"></path>
    <path d="M563.29,405.49h-14.11v-34.03c0-.46-.89-3.51-1.14-4.15-3.43-9.03-14.35-6.61-19.68-.79v38.97h-14.11v-54.66h12.52l.46.59c.15,1,.19,2.14.43,3.11.06.26-.14.81.52.53.84-.36,2.89-2.23,4.18-2.88,8.4-4.23,20.95-3.87,26.78,4.39,2.53,3.59,3.87,10.52,4.15,14.9.7,11.09-.52,22.87,0,34.03Z"></path>
    <path d="M478.2,349.53c35.59-2.25,37.42,55.48,3.08,57.39-34.79,1.93-37.78-55.19-3.08-57.39ZM477.83,361.5c-13.95,2.04-13.55,30.93-.36,32.97,20.44,3.16,19.5-35.78.36-32.97Z"></path>
    <path d="M273.23,349.53c35.58-2.01,37.12,55.42,3.09,57.39-35.04,2.03-37.82-55.43-3.09-57.39ZM272.5,361.5c-12.44,1.95-13.52,26.31-3.09,31.84,3.3,1.75,8.56,2.01,11.66-.35,10.87-8.28,7.25-33.97-8.57-31.49Z"></path>
    <path d="M410.18,405.49h-13.05c.01-1.12.1-2.32-.31-3.4-.14-.38.17-.6-.56-.48-1.99,2.2-5,3.78-7.87,4.48-21.39,5.17-32.65-21.32-13.36-31.69,6.75-3.63,14.19-3.14,21.43-4.74.18-9.14-7.89-10.41-15.12-8-2.82.94-5.14,2.83-7.83,3.98l-4.19-9.65c6.94-5.23,19.09-8.21,27.54-5.76,6.9,2,13.33,9.26,13.33,16.65v38.61ZM396.42,380.1c-5.29.3-15.77.39-17.13,7.03-2.15,10.48,12.12,9.4,17.13,4.08v-11.11Z"></path>
    <path d="M425,350.83c-.04-7.14.85-14.75,6.89-19.39,5.58-4.28,17.47-3.8,23.64-.73l-1.6,11.31c-4.02-1.34-10.93-2.93-13.7,1.29-.2.31-1.12,2.26-1.12,2.41v5.11h11.64v11.28h-11.64v43.38h-14.11v-43.38h-7.06v-11.28h7.06Z"></path>
    <path d="M205.21,350.83l14.46,35.97,13.41-35.97h14.46l-21.9,54.1c-.25.55-.68.52-1.19.58-3.39.39-7.49-.35-10.97,0l-23.45-54.68h15.17Z"></path>
  </g>
</svg>