<?xml version="1.0"?>
<svg id="Layer_1" data-name="Layer 1" xmlns="http://www.w3.org/2000/svg" viewBox="0 0 811.29 437.69">
  <defs>
    
  </defs>
  <g class="cls-1">
    <path d="M296.67,138.82v32.56h50.46c-5.88,13.29-9.91,27.33-9.55,42.06h-40.91v31.89c0,6.03,7.92,18.61,12.97,22.38,9.92,7.41,30.25,7.79,40.68,1.15,22.67-14.44,11.29-52.87,16.28-76.07,15.57-72.33,129.02-72.57,146.23-3.78,5.4,21.58,6.18,94.48,3.47,117.45-.23,1.97-.17,3.49-2.12,4.68h-38.18l-2.05-2.04v-31.89h-50.46c7.25-12.21,10.04-26.57,9.55-40.71h40.91v-34.6c0-.52-3.21-8.48-3.84-9.74-12.6-25.1-54.09-21.36-62.32,6.33-8.15,27.4,5.62,51.36-12.67,81.02-26.72,43.35-106.9,42.32-130.95-3.21-2.36-4.47-8.42-21.24-8.42-25.54v-111.94h40.91Z"></path>
    <path d="M134.09,139.19c89.95-10.15,134.34,103.61,62.91,154.86-60.69,43.55-143.4-3.34-137.59-77.2,3.02-38.46,35.99-73.3,74.68-77.67ZM135.4,179.85c-53.05,8.9-43.98,98.44,17.05,90.23,58.59-7.88,48.97-101.32-17.05-90.23Z"></path>
    <path d="M578.97,138.82v40.03c0,5.7,9.33,18.95,14.31,22.4,10.44,7.24,33.21,6.4,42.88-2.13,2.77-2.45,11-15.97,11-18.91v-41.38h42.28c.4,30.78,1.49,62.61-21.54,86.18,4.92,6.02,9.91,12.01,13.17,19.17,1.84,4.05,7.01,19.27,7.01,22.87v42.74h-39.55v-34.6c0-1.72-3.43-12.35-4.46-14.56-10.88-23.26-47.15-23.59-59.92-2.01-1.49,2.52-5.17,12.85-5.17,15.21v37.31h-40.91v-42.74c0-2.25,2.8-12.37,3.71-15.31,3.36-10.83,9.61-20.58,18.09-28.11-24.13-22.44-21.78-55.84-21.8-86.16h40.91Z"></path>
    <rect x="711.25" y="194.45" width="40.91" height="116.69"></rect>
    <path d="M727.25,139.14c28.94-5.17,33.7,35.59,8.92,40.07-27.54,4.98-34.07-35.57-8.92-40.07Z"></path>
  </g>
</svg>