<?xml version="1.0"?>
<svg id="Layer_1" data-name="Layer 1" xmlns="http://www.w3.org/2000/svg" viewBox="0 0 811.29 437.69">
  <defs>
    
  </defs>
  <g class="cls-1">
    <path d="M440.78,172.4c1.47-.02,2.79-.64,4.28-.69,55.05-1.85,111.14,1.46,166.3.02,13.32-1.74,23.81-11.32,24.2-25.15l1.25,10.85c-.95,22.73-9.17,42.4-33.6,46.55-53,2.03-106.35.27-159.47.89-21.43-3.66-35.94-19.65-37.43-41.38l.07-94.68c.47-2.97,5.49-6.22,7.6-8.3,8.93-8.84,17.58-17.98,26.81-26.5v138.4Z"></path>
    <path d="M130.23,147.37l73.63-55.05,37.82,37.73c.62,2.03.92,4.1,1.06,6.23,1.8,26.77.24,66.21-34.78,68.59-11.53.78-40.14,1.29-50.22-2.17-23.49-8.08-30.17-32.79-27.51-55.32ZM148.96,170.41h59.95l-1-68.87-72.92,54.31c1.06,5.68,8.01,13.72,13.96,14.57Z"></path>
    <path d="M344.72,170.41l.32-72.83,32.79,32.79c.04,24.94,4.79,61.94-24.5,72.82-9.58,3.56-39.61,3.21-50.7,2.35-17.91-1.4-37.41-18.85-37.41-37.44v-19.2c0-.11.65-1.94,1.32-1.65.02,7.83,4.67,18.02,11.99,21.46.71.33,4.53,1.72,4.91,1.72h61.28Z"></path>
    <path d="M672.92,139.7c7.91,7.99,16.34,15.95,23.56,24.44-1.28,23.97,1.75,49.76.04,73.51-1.25,17.44-10.49,30.38-25.42,38.83-17.96,10.16-38.85,6.96-58.08,2.53l15.24-2.3c24.18-6.38,33.82-29.1,35.13-52.29,1.39-24.4-.21-49.81-.72-74.16-.14-6.73.16-13.49.03-20.22,1.15-.3,1.32.48,1.99.99,2.52,1.91,5.82,6.27,8.22,8.69Z"></path>
    <path d="M340.42,349.2c.57-.14,1.29-.97.33-1.66-2.31-1.66-7.34.3-7.36-3.97,0-3.09,4.62-3.59,7-3.67,7.82-.27,7.95,3.09,4.99,9.3h8.62s.33-4.64.33-4.64c2.59-.02,1.31,4.32,1.65,4.65.69-.1,1.63.19,2.2,0,1.16-.38,4.67-9.04,9.39-9.34,5.19-.33,6.3,5.19,6.3,9.33l6.85-.1.96-1.39-1.74-11.36,5.85-3.03c-.29,3.78-.64,22.32-3.08,23.89-2.14.73-6.72,1.35-8.22-.35-.94-1.06-.6-3.33-1.94-3.68-.99,7.24-11.98,4.36-17.21,3.98-.64.47.15,3.96-2.01,3.29.15-3.23,2.46-5.24,1.31-8.6-1.27.33-.37,2.53-1,3.96-1.28,2.9-9.43,2.93-10.17.2l.25-3.49-4.78,5.16c-3.16-.16-9.78,1.26-11.85-1.13-1.32-1.52-.68-3.85-2.25-4.69.86,2.74-1.2,7.75-4.65,5.66-1.37-.83-.61-3.36-1.97-3.67.01,3.77-.55,7.63-2.98,10.6-4.16,5.1-5.99.88-10.28-1.68-.29-1.28.48-.97,1.33-1.29,3.54-1.33,7.65-1.75,10.28-4.98.61-2.94-6.32-6.72-5.36-8.62.32-.63,5.26-4.49,5.67-3.97-.91,6.34,3.12,5.4,7.96,5.3.36-.38-1.01-5.09,1.98-4.64v4.63h13.58ZM360.62,349.2h11.26c-.29-.78-2.51-2.23-3.14-2.49-3.66-1.46-6-.94-8.12,2.49Z"></path>
    <path d="M149.95,348.21c.5,1.63,5.11.84,6.63,1l-1.11-12.96,4.09-2.92c3.04,3.96,2.25,7.54,1,11.91,3.62-2.28,4.66-6.99,9.77-4.79,3.84,1.65,2.59,8.01,4.56,8.68l7.56-.22,1.64-4.33.95,4.33c.88.49,3.33.55,4.26.22,1.84-.64.74-5.07,2.73-4.55,1.23.32-1.06,3.49.31,4.33l7.32.3-3.9-6.19,3.57-3.08c2.24,4.34,2.23,9.97.65,14.57-2.05,5.98-9.68,4.17-8.59-2.65-.54,7.39-7.75,8.94-7.95.66-.75,7.34-8.92,7.39-10.6.66-.38,0-.93,2.49-1.96,3.34-2.11,1.74-16.05,1.75-19.19,1.26-4.54-.71-3.91-6.6-4.68-6.59-.24,4.76-2.7,5.99-7.25,5.26-5.43-.87-4-7.27-3.38-11.24.74-1.13,6.69-2.07,7.67-2.94.93-.82.36-2.16.79-2.85.39-.62,4.2-1.48,5.16-2.13v10.93ZM145.98,344.56c-.5-.52-7.27,1.49-7.27,2.32,1.84,2.67,5.15,1.43,7.94,1.65l-.66-3.97ZM171.15,349.2c-2.77-4.06-8.06-4.64-10.6,0h10.6Z"></path>
    <path d="M261.91,333.31c-1.62,5.87.09,17.37-2.35,22.47-1.18,2.47-6.03,2.67-8.23,1.68-1.97-.89-2.07-4-3.98-4.96l-1.31,4.99c-5.87.58-10.73,2-10.29-5.66.44,5.15-6.28,8.81-8.87,4.23-.9-1.59-.2-3.57-1.4-4.22.47,6.36-3.38,6.37-8.62,5.95.6,4-2.47,10.52-7.31,8.98-.66-.21-5.74-3.63-5.93-4.02-.54-1.07.75-1.1,1.32-1.3,3.16-1.08,6.81-.99,9.93-2.35.95-.95-.06-1.2-.98-1.32-3.11-.4-8.11,1.19-9.47-3.12-3.79-11.97,9.27-21.74,12.88-5.46l7.55-.32.96-4.35,1.61,4.35,8.2.16c2.93-.88,3.24-12.78,11.07-6.84,3.99,3.03,3.41,8.69,10.59,6.97l-1.26-12.8,5.9-3.09ZM246.01,349.19c-.87-1.69-4.5-3.11-6.18-2.68l-1.11,1.7,7.28.98ZM214.21,349.86c-.85-3.98-6.65-3.18-8.61-.32l8.61.32Z"></path>
    <path d="M620.98,349.2l-3.89-5.75,2.9-3.51c1.43-.25.76.3,1.04.91,2.14,4.73,1.82,8.73.25,13.64-1.23,3.85-3.45,3.57-7.3,3.34-5.17-.31-3.34-2.15-5.27-5.99l-.94,4.86c-5.15,3.26-7.92-.24-9.66-4.86l-1.31,5.32c-5.13,1.34-11.8,2.19-10.29-5.31-1.38.82-1.04,3.55-2.04,4.9-2.56,3.48-9.5-.08-7.9-4.9-1.29.76-.68,3.14-1.68,4.6-1.31,1.9-6,1.88-7.8.74-1.49-.94-1.35-4.78-2.77-6.01-.49,3.47.05,4.88-3.96,5.31-8.31.89-7.67-5.26-6.36-11.51l8.68-3.08-.67-2.64,5.96-1.99-.36,11.3,7.7.33.96-4.35,1.61,4.35,8.2.16c2.3-.69,2.85-8.47,7.4-8.54,4.98-.07,7.73,8.39,8.77,8.67h6.16c.36-.38-1.01-5.09,1.98-4.64v4.63h10.6ZM563.3,344.6l-6.16,1.29c-1.83,3.86,4.38,2.45,6.85,2.65l-.7-3.93ZM596.46,349.19c-.83-1.88-6.15-3.97-7.28-1.64-.96,1.97,6.46,1.75,7.28,1.64Z"></path>
    <path d="M644.16,348.21c.54,1.76,6.36.74,7.95,1,.36-.38-1.01-5.09,1.98-4.64v4.64s8.23.04,8.23.04c1.03-.18-.1-5.31,2.37-4.67v4.64s7.26-.03,7.26-.03c-.37-3.88,3.87-5.65,1.35-9.23,1.91,0,3.03-2.1,4.91-2.01,1.55.08,8.34,4.28,9.43,5.54,3.31,3.78,1.71,11.83-.86,15.61-2.78.74-7.98-2.57-9.84-2.55-1.1,0-2.12,1.13-3.35,1.25-5.14.52-10.55.81-9.57-5.93-2.39-.45-.79,3.05-1.93,4.86-.77,1.22-4.35,1.33-5.66,1.09-3.89-.72-2.98-5.86-3.34-5.95-1.92-.47-.31,4.61-2.09,5.35-5.93,2.05-9.04.15-9.5-6.01-1.2.08-.46,2.06-1,3.29-1.39,3.16-9.2,2.64-10.13-.45-.36-1.19-.36-7.91.19-8.82,1.49-1.74,6.41-1.85,7.65-2.96.93-.83.36-2.16.79-2.84.39-.62,4.2-1.48,5.16-2.13v10.93ZM640.19,344.56c-1.25-.31-8.54,1.56-7.28,3.31l7.95.66-.66-3.97ZM679.93,348.53c.26-2.48-2.13-4.47-4.57-3.9l-.66,3.85c1.85.93,3.36.73,5.24.05ZM687.22,352.51c.97-.97-4.87-5.71-5.29-5.3l-.67,3.97,5.96,1.33Z"></path>
    <path d="M523.58,351.85c-1.43.77-.73,4.11-1.63,5.31s-9.6.83-10.19-.11l-.75-5.2-1.98,5.64-5.97.32c-.53,10.97-7.06,11.3-13.91,4.3,3.7-2.18,8.92-.55,11.92-3.97-3.64-1.12-8.35,1.35-10.27-2.97-4.85-10.95,9.18-22.86,11.91-6.61l8.97.32c2.64-4.69,4.57-12.08,10.95-6.33,3.96,3.57,2.53,8.3,10.24,6.65l-1.23-12.8,5.2-3.09c.64.86-.87,19.17-1.47,21.37-1.65,6.04-11.62,3.5-11.78-2.83ZM521.6,349.19c-1.41-2.07-5.42-3.88-7.28-1.64-.53,2.51,6.03,1.48,7.28,1.64ZM499.56,348.06c-1.81-1.5-7.66-1.4-7.77,1.8h8.61c.08-.06-.67-1.66-.84-1.8Z"></path>
    <path d="M434.82,349.2l8.52-.09.76-4.55h1.98s-.66,4.64-.66,4.64l4.88-.08,2.73-4.55-.33,4.64h5.3c.44-.44-1.03-5.44,1.31-5.96l.67,5.96,8.2-.09,2.08-4.55c2.28-.75-.14,4.2.33,4.64l5.34-.28,2.27-4.36-.32,4.64h7.95s-3.88-5.74-3.88-5.74l2.89-3.51c3.76,2.3,2.23,15,.18,17.05-.98.98-4.52,1.14-5.81.49-1.96-.98-.58-4.22-2.31-3.65-.46.15-1.69,7.51-6.87,2.89l-.42-4.88c-.1,7.59-9.99,8.8-9.94.66-.64,4.07-2.04,6.17-6.53,5.21-2.15-.72-.41-5.87-1.42-5.87-.42,4-2.66,8.39-6.86,4.88l-.42-4.88-2.09,5.36c-4.51.99-8.58,1.99-9.98-3.21-.55-2.05-2.58-17.1-2.06-17.93l4.86-2.74c1.42.9.56,1.14.53,1.82-.18,4.71-.66,9.37-.87,14.06Z"></path>
    <path d="M170.4,377.1c.9.57,2.98,11.56,5.39,12.49l3.39-12.51,6.56-.07c-.11,7.1-.14,14.22,1.32,21.19h-7.28c1.74-5.1-.15-10.65-.33-15.89-.75,0-3.48,12.61-4.25,14.29-1.08,2.35-2.26,2.26-3.51.09-1.68-2.93-2.75-8.7-4.32-12.24-.36-.8-.33-1.96-1.5-2.14.98,5.32-2.17,11.23.66,15.89h-3.97c2.35-6.28,1.74-14.37,1.98-21.19l5.87.1Z"></path>
    <path d="M400.37,383.63l5.56-.71.7,1.37c3.34-3.28,7.18.41,9.3.41,2.64,0,4.1-3.37,8.89-.68,5.13,2.89,1.23,9.69,3.37,14.17h-6.62s0-10.26,0-10.26c0-2.2-4.64-3.02-4.64-1.32v9.93c0,.21.91.94.66,1.65h-6.62c.78-2.6,1.56-11.7-1.79-12.49l-2.85.58v11.92h-5.96v-14.57Z"></path>
    <path d="M426.21,349.2l-4-5.63,3.01-3.63c3.73,2.74,2.45,15.98-1,17.52-1.49.67-16.74.62-18.57.05-4.63-1.45-4.83-11.42-2.28-14.93l.43,5.52.89,1.1h21.53Z"></path>
    <path d="M285.09,353.84l-2.42,3.86c-5.23.66-8.75.29-9.45-5.58-1.38-11.6,11.6-17.86,13.19-1.92.48,4.81.6,19.64-7.76,16.36-1.93-.76-7.66-4.07-3.79-5.41,4.46-1.54,11.35.4,10.23-7.32ZM282.93,348.06c-1.81-1.5-7.66-1.4-7.77,1.8h8.61c.08-.06-.67-1.66-.84-1.8Z"></path>
    <path d="M245.35,398.2c1.13-6.94.93-14.24,0-21.19,10.87-2.13,24.03,4.17,17.74,16.73-.63,1.26-4.38,4.45-5.48,4.45h-12.26ZM251.31,396.88c10.01,1.85,10.01-19.73,0-17.88v17.88Z"></path>
    <path d="M573.94,376.35l5.96-.66v7.94c2.73-.92,7.03-1.17,8.94,1.33.28.37,1.66,3.44,1.66,3.64v9.6h-5.96v-10.93c0-.79-3.37-3.08-4.64-2.32v12.25c0,.14.99.75.66.99h-6.62s0-21.85,0-21.85Z"></path>
    <path d="M388.12,383.63c9.59,1.92,6.44,20.01-5.63,14.57l.66,6.62h-6.24s-.38-21.19-.38-21.19c3.43.47,8.4-.64,11.59,0ZM382.48,396.88c7.4,1.58,7.5-13.43,0-11.92v11.92Z"></path>
    <path d="M155.92,378.34l-1.33,4.63c-1.9.15-2.03-2.02-3.32-2.97-2.32-1.71-7.81-1.27-7.16,1.88s11.8,2.83,12.5,9.35c.95,8.82-11.51,8.33-17.25,6.29l1.32-4.61c1.9-.18,1.67,1.88,3.33,2.95,3.41,2.2,10.08.84,7.3-3.33-2.39-3.6-12.02-1.69-12.03-9.22-.01-7.55,11.59-6.87,16.62-4.96Z"></path>
    <path d="M539.49,382.97v10.93c0,2.2,4.64,3.02,4.64,1.32v-9.93c0-.16-.54-.4-.52-.66l6.48-1.66v15.23l-5.56.71-.7-1.37c-11.03,5.05-10.87-6.04-10.3-13.91l5.97-.66Z"></path>
    <path d="M208.58,377.01l.99,3.97c-3.45-1.36-6.01-2.6-9.94-1.99v7.95s7.95-1.32,7.95-1.32v3.63s-7.95-.99-7.95-.99v8.61c3.71.43,6.68-.35,9.93-1.99v3.31s-15.89,0-15.89,0v-21.19h14.91Z"></path>
    <path d="M458.01,383.63l5.56-.71.7,1.37c3.04-2.93,10.3-.41,10.3,3.64v10.26h-6.62c.83-2.61,1.27-8.67.22-11.11-.8-1.86-4.2-1.69-4.2-.48v11.59h-5.96v-14.57Z"></path>
    <path d="M526.9,398.2h-7.95c4.85-8.13-12.65-8.63-7.29,0h-4.64c.56-1.43,1.69-2.57,2.32-3.97.89-1.99,4.94-12.68,4.68-13.92-.14-.66-1.87-3.17-1.7-3.29l6.31.64,8.26,20.54ZM518.29,390.91l-2.98-7.27-2.96,6.3c1.39,1.73,3.95.79,5.94.98Z"></path>
    <path d="M359.13,383.13c12.14-1.92,14.4,13.89,3.65,15.58-12.21,1.93-14.74-13.83-3.65-15.58ZM359.38,385.05c-2.08,1.28-2.24,11.23,1.57,12.47,5.12-1.76,3.05-15.31-1.57-12.47Z"></path>
    <path d="M604.25,383.13c13.59-2.14,13.99,17.11.57,15.69-9.85-1.04-10.33-14.16-.57-15.69ZM604.59,396.7c.49.5,1.56.93,2.16.25,3.48-2.35,2.75-11.98-.67-12.46s-4.02,9.63-1.49,12.2Z"></path>
    <path d="M287.09,390.92h-11.26c1.41,5,7.12,4.84,10.59,1.99-.24,7.76-13.19,7.59-15.37,1.14-4.25-12.63,16.57-15.94,16.03-3.12ZM282.45,388.93c.34-5.4-5.94-6.14-6.63-.99-.27,2.04,5.26.56,6.63.99Z"></path>
    <path d="M332.14,390.92h-11.26c.39,4.72,7.4,5.05,10.27,1.99.42,7.09-11.15,7.63-14.4,2.46-7.57-12.06,15.83-18.82,15.39-4.45ZM327.5,388.93c.34-5.4-5.94-6.14-6.63-.99-.27,2.04,5.26.56,6.63.99Z"></path>
    <path d="M296.36,344.58l-1.97-1.01c7.94-8.42,14.79,4.37,11.08,12.41-1.15,2.49-5.57,2.2-8.07,1.79-6.44-1.07-3.44-9.61-1.03-13.19ZM304.97,349.85c-1.4-2.56-4.38-3.59-6.93-4.65-4.46,6.46,2.31,4.38,6.93,4.65Z"></path>
    <path d="M440.12,390.92c.39,5.48,6.22,4.04,9.93,2.65-.6,6.65-11.52,6.76-14.48,1.57-4.32-7.58,3.42-14.08,11.06-11.72,2.81.86,5.62,5.07,3.75,7.5h-10.27ZM445.26,385.12c-2.34-2.36-5.89.98-5.14,3.8h5.97c.01-1.12-.02-2.99-.83-3.8Z"></path>
    <path d="M677.28,383.63c-.42,1.41,2.84,10.14,3.32,10.59,1.13,1.06,1.11-.33,1.38-.93,1.25-2.78,2.14-6.62,1.93-9.67l2.63.97c-3.96,6.91-3.75,21.86-13.23,22.87v-5.3c3.27.29,5.21.26,6.61-2.98-5.64-2.57-6.17-10.54-9.26-15.55h6.62Z"></path>
    <path d="M228.78,383.64l-.99,4.63c-1.14-2.93-7.06-6.03-8.28-1.66,3.17,2.65,9.78,2.11,9.98,7.31.22,5.74-8.86,5.39-12.66,3.98l-.63-4.33c2.48.27,3.26,3.31,5.77,3.85,2.15.46,4.5-.16,3.1-2.58-15.7-3.47-10.11-14.58,3.7-11.2Z"></path>
    <path d="M564.67,395.88c.26,1.05,3.23.15,2.65,2.31-11.06,3.14-8.47-5.25-8.57-12.88l-1.52-.37c-2-2.32.79-1.76,1.81-2.6,1.84-1.51,2.68-3.95,5.62-3.34v4.64s2.66.33,2.66.33l-2.65.99v10.93Z"></path>
    <path d="M662.05,395.88l1.07.88,1.58-.55-.05,1.93c-10.61,3.55-8.55-5.65-8.51-12.82l-2.04-.7c-.06-.78,6.57-6.97,7.95-5.62v4.64s2.66.33,2.66.33l-2.65.99v10.93Z"></path>
    <path d="M344.72,375.69l.67,22.51h-6.62c1.11-6.66.96-14.19.16-20.89l5.8-1.62Z"></path>
    <path d="M621.64,383.63l5.96-.67.33,2.65c1.66-2.05,3.61-3,6.3-2.65v6.62c-.86-1.76-6.62-4.13-6.62-1.66v10.26h-5.96v-14.57Z"></path>
    <path d="M488.48,379v4.64s3.32.33,3.32.33l-3.32.98c.45,2.89-.9,8.79.63,11.02.64.94,3.12.02,2.68,2.22-11.06,3.14-8.48-5.25-8.57-12.88l-1.52-.37-.52-1.64c3.13-.72,4.22-4.39,7.3-4.3Z"></path>
    <path d="M265.23,358.47l-.7-21.5,4.66-3.66c-.38,1.95,1.7,4.3,1.82,5.73.1,1.25-1.07,2.87-1.16,4.53-.14,2.74.37,5.98-.04,8.57-.18,1.15-3.46,7.63-4.59,6.33Z"></path>
    <path d="M542.13,358.46l-1.32-.33-.66-21.19,4.63-3.64c-.33,2.23,1.33,4.22,1.34,6.28,0,1.11-.66,2.23-.67,3.33-.03,6.36.71,10.15-3.33,15.55Z"></path>
    <path d="M299.68,383.63c-.57,4.19,2.43,7.48,3.64,11.27,1.38-3.54,4.38-7.32,2.98-11.26h3.31s-5.7,14.6-5.7,14.6l-4.79-.15-6.05-13.49c-.2-1.32.04-.85.96-.97,1.76-.23,3.84.16,5.65,0Z"></path>
    <path d="M389.78,358.47c.13-4.33-2.08-20.12-.05-22.89.58-.79,2.37-1.28,3.03-2.26.36,0,2.28,5.82,2.28,6.28,0,1.08-1.14,2.12-1.25,3.35-.55,5.65,1.73,11.73-4,15.52Z"></path>
    <path d="M646.82,383.63l.66,14.57h-6.62c1.04-4.69,1.04-9.89,0-14.56h5.96Z"></path>
    <path d="M231.44,337.95c.57.83-1.89,3.32-2.98,3.32l-2.65-2-2.53,1.88-3.09-2.22,2.96-2.83,3.23,1.77,2.08-1.91,2.98,1.98Z"></path>
    <polygon points="305.63 335.31 305.21 336.67 302.66 338.45 299.43 336.68 297.36 338.49 294.37 336.26 297.36 333.28 300.01 335.28 302.08 333.35 305.63 335.31"></polygon>
    <path d="M658.83,364.34c-1.1-1.88,3.04-5.83,4.96-1.94l2.56-1.83c5.73,2.37,1.06,7.35-2.65,3.3l-2.07,1.82c-.28.05-2.72-1.22-2.79-1.35Z"></path>
    <path d="M646.15,333.29l-2.98,1.98c-2.01-2.56-3.29-2.57-5.3,0l-2.96-2.97,2.43-2.25c.58-.24,1,0,1.51.24,2.26,1.04.33,2.54,4.32-.33,1.09,0,3.55,2.49,2.98,3.32Z"></path>
    <path d="M561.11,330.06c.84-.13,1.72,1.46,3.17,1.29.99-.11,1.81-1.42,2.6-1.29,2.34.37,3.35,4.07-.21,4.97l-2.93-1.69-2.64,1.9c-2.93-1.01-2.6-4.77,0-5.18Z"></path>
    <path d="M574.28,360.61l2.55,1.79,2.64-1.9c3.01,2.04,2.97,3.19,0,5.2l-2.55-1.8-3.23,1.77c-3.28-2.12-2.91-3.62.58-5.07Z"></path>
    <polygon points="331.47 362.46 329.06 365.65 325.84 363.87 323.32 365.67 320.22 363.44 323.18 360.61 326.41 362.38 328.49 360.47 331.47 362.46"></polygon>
    <path d="M616.1,332.69l2.64,1.9,3.14-1.9c4.74,2.46.38,7.5-2.64,3.3l-3.14,1.9c-2.97-2.01-3-3.17,0-5.2Z"></path>
    <path d="M143.78,330.09l2.53,1.88c2.2-2.9,3.55-2.29,5.61.34l-2.96,2.97-2.08-1.88-3.22,1.78-2.96-2.87,3.09-2.22Z"></path>
    <path d="M411.39,337.33l3.14,1.9,2.64-1.9c2.98,2.06,3.14,3.32-.21,4.99l-2.93-1.69-2.64,1.9c-2.97-2.01-3-3.17,0-5.2Z"></path>
    <path d="M643.32,375.12c5.13-1.36,6.14,6.89-.12,5.86-3.58-.59-2.62-5.13.12-5.86Z"></path>
    <path d="M494.44,335.29l4.63-.65c.81,3.91-3.01,3.68-5.96,3.96.99-1.95-.03-8.01,3.63-7.28,3.43.68-1.84,3.23-2.3,3.97Z"></path>
    <polygon points="654.76 336.61 652.12 338.6 656.08 337.95 655.99 340.5 650.79 341.91 651.39 335.58 653.72 334.66 654.76 336.61"></polygon>
    <polygon points="608.84 336.07 612.35 338.27 609.39 341.09 605.75 338.27 608.84 336.07"></polygon>
    <path d="M338.1,332.66l2.98-1.98,2.96,2.96-2.96,2.34c-1.09,0-3.55-2.49-2.98-3.32Z"></path>
    <g>
      <path d="M562.1,280.07c-2.18.03-4.35.05-7.06-.08-7.02-.08-13.51,0-20.01.07-1.33.03-2.66.06-4.49-.07-2.49-.09-4.48-.02-6.46.06-.3.03-.6.05-1.34-.08-2.04-.24-3.63-.32-5.22-.4.31-1.26.3-2.73.98-3.74,5.72-8.45,11.57-16.81,17.63-25.17.65-.42,1.05-.86,1.45-1.31.31-.25.63-.5,1.17-.48,1.31.72,2.39,1.54,3.47,1.55,22.21.07,44.41.08,66.62,0,1.39,0,2.78-.81,4.18-1.24-.13,1.1.11,2.44-.43,3.28-5.58,8.52-11.22,17-17.03,25.35-.8,1.15-2.63,1.57-4.48,2.17-8.73-.26-16.98-.38-25.22-.43-1.25,0-2.51.34-3.77.52Z"></path>
      <path d="M612.88,248.95c-1.24.67-2.63,1.47-4.02,1.47-22.21.08-44.41.08-66.62,0-1.08,0-2.16-.83-3.27-1.52,24.57-.23,49.17-.21,73.91.04Z"></path>
      <path d="M562.4,280.12c.96-.23,2.21-.57,3.47-.57,8.24.05,16.49.17,24.97.38-9.22.15-18.68.19-28.44.18Z"></path>
      <path d="M535.34,280.11c6.19-.12,12.69-.2,19.41-.16-6.21.15-12.67.18-19.41.16Z"></path>
      <path d="M524.37,280.1c1.7-.12,3.69-.2,5.89-.15-1.72.14-3.66.17-5.89.15Z"></path>
      <path d="M517.65,279.81c1.46-.16,3.05-.08,4.87.11-1.43.12-3.08.12-4.87-.11Z"></path>
      <path d="M537.41,249.35c-.22.45-.62.9-1.06,1.22.27-.49.57-.86,1.06-1.22Z"></path>
    </g>
    <g>
      <path d="M177.37,38.96c.5,10.28,1.08,20.56,1.41,30.84.04,1.22-.93,2.88-1.95,3.68-11.69,9.18-23.5,18.2-35.23,27.32-8.42,6.55-16.77,13.19-25.17,19.77-.43.34-1.4.73-1.53.58-.53-.6-1.1-1.38-1.16-2.13-.33-4.06-.46-8.13-.76-12.19-.39-5.28-.89-10.54-1.16-16,.39-.12.6-.03.81,0,.07,0,.23-.15.22-.23-.22-4.24.39-7.84,4.4-10.64,6.87-4.8,13.36-10.15,19.97-15.31,4.48-3.5,8.88-7.11,13.36-10.61,5.1-3.99,10.22-7.96,15.38-11.87,3.11-2.35,6.31-4.56,9.35-6.74.88,1.5,1.47,2.52,2.07,3.54Z"></path>
      <path d="M177.42,38.67c-.64-.72-1.24-1.74-2.11-3.25-3.03,2.18-6.24,4.39-9.35,6.74-5.16,3.91-10.28,7.87-15.38,11.87-4.48,3.5-8.88,7.11-13.36,10.61-6.61,5.16-13.1,10.51-19.97,15.31-4.02,2.8-4.62,6.4-4.4,10.64,0,.08-.16.24-.22.23-.21-.03-.42-.12-.76-.29-.16-1.06-.19-2.01-.09-3.44.23-.72.32-.98.41-1.24-2.39-4.23,1.91-5.3,3.78-6.82,10.05-8.15,20.37-15.96,30.65-23.83,8.08-6.18,16.23-12.27,24.34-18.42,1.8-1.37,3.56-2.8,5.34-4.2.39.18.77.36,1.16.55,0,1.74,0,3.48-.05,5.52Z"></path>
      <path d="M111.96,85.96c.14.16.04.42-.14.86-.09-.13-.09-.45.14-.86Z"></path>
    </g>
    <g>
      <path d="M217.07,243.26c.54-.45,1.03-1.21,1.62-1.31,2.06-.35,4.15-.62,6.23-.6.72,0,1.71.82,2.06,1.52.36.72.11,1.76.11,2.66,0,14.61,0,29.21,0,43.82,0,7.69-5.14,13.77-12.42,16.19-6.7,2.23-12.84.58-19.07-1.21-1.5-.43-2.76-1.72-3.95-2.96.73-1.14,1.53-1.86,1.78-2.74.79-2.73,2.13-3.43,4.93-2.41,2.88,1.05,5.97,1.71,9.03,2.09,4.85.61,9.23-2.56,9.54-6.54v-5.85c-6.51,1.22-12.76.99-18.3-2.38-2.34-1.42-4.64-3.82-5.66-6.31-1.58-3.87-2.63-8.16-2.88-12.33-.44-7.48-.13-15.01-.13-22.76h10.11c0,7.76.01,15.48,0,23.19,0,3.23.95,6.01,3.17,8.43,3.17,3.46,7.03,3.47,11.56,2.69.77,0,1.13-.12,1.49-.24,0,0-.01.07.23.04.76-1.11,1.72-2.18,1.74-3.26.13-8.84.12-17.69.03-26.54-.01-1.07-.78-2.13-1.2-3.19Z"></path>
      <path d="M312.88,240.56c-.03-4.49-.07-8.99-.1-13.48-.02-2.09.47-3.3,2.99-2.28.96.39,2.31.42,3.29.07,3.14-1.14,3.81.58,3.82,3.06.04,8.43.01,16.86.01,25.3,0,8.66-.07,17.32.05,25.97.04,2.72-.51,4.14-3.54,5.09-6.58,2.07-13.09,2.92-19.86,1.48-6.66-1.42-13.35-8.7-13.66-15.67-.24-5.32.29-10.68.62-16.01.06-1.01.79-1.98,1.5-3.17,1.02-.73,1.89-1.14,2.43-1.81,3.85-4.77,8.5-7.79,14.93-7.19,2.21.21,4.42.33,6.64.47,1.74.11,1.8-.03.89-1.82M295.62,259.18c-.23-.43-.47-.85-1.07-1.97,0,3.92.03,7.03,0,10.15-.06,4.18,1.66,7.62,5.32,9.39,4.1,1.98,8.58,2.49,12.84.03.31-.18.13-1.19.09-2.44,0-6.81.04-13.62-.07-20.44-.02-1.07-.43-2.66-1.18-3.09-6.45-3.69-15.15,1.19-15.91,8.37Z"></path>
      <path d="M369.44,277.99c.81,3.8-.42,5.5-4.07,6.5-6.83,1.88-13.67,2.96-20.56,1.18-5.61-1.45-10-4.57-11.87-10.64-1.74-5.69.53-11.83,5.73-14.96,6.3-3.8,13.43-2.87,20.22-4.33.69-3.1-1.67-5.76-5.95-5.66-3.7.09-7.39.92-11.06,1.55-1.48.26-2.89.86-4.51,1.36-1.13-2.69-2.14-5.09-3.53-8.38,3.93-1.28,7.49-2.9,11.21-3.56,7.2-1.27,14.45-1.18,20.57,3.59,2.76,2.15,3.78,5.56,3.8,9.1.04,7.98.02,15.96.02,24.24M359.25,275.73v-11.43c-4.44.67-8.5,1.25-12.56,1.89-2.87.46-4.43,2.6-4.06,5.1.37,2.48,1.72,5.04,5.08,5.01,3.71-.03,7.42-.06,11.54-.57Z"></path>
      <path d="M264.3,254.73c-1.92-3.98-7.18-5.91-12.61-4.55-2.22.56-4.53.97-6.58,1.91-2.74,1.25-3.87.14-4.57-2.3-.39-1.34-.86-2.66-1.06-4.19,4.54-1.37,8.79-2.89,13.16-3.57,3.57-.56,7.3-.14,10.97-.15,4.75.33,9.84,5.06,10,9.67.34,9.81.5,19.63.65,29.45.01.71-.42,1.88-.94,2.09-8.15,3.24-16.6,4.92-25.16,2.32-4.58-1.39-8.6-4.24-10.19-9.72.26-1.22.53-1.97.56-2.74.46-9.31,3.29-12.75,12.55-14.39,4.06-.72,8.25-.73,12.36-1.18,1.96-.21,2.75-1.06.85-2.65M247.33,270.67c.2.83.21,1.77.63,2.47,1.99,3.36,12.42,5.25,15.53,2.82.37-.29.64-.95.65-1.44.06-3.19.03-6.39.03-9.69-2.6,0-4.76-.27-6.83.06-3.86.62-8.38.24-10.01,5.78Z"></path>
      <path d="M134.08,245.27c.05-.2.1-.4.58-.64,6.26-2.17,12.25-3.19,18.47-2.78.81.05,1.66-.49,2.49-.75.28.05.57.09,1.14.39,1.33.98,2.37,1.71,3.41,2.43-.79,2.29-1.36,4.7-2.5,6.8-.3.56-2.39.27-3.64.15-1.95-.19-3.89-.88-5.81-.8-3.77.15-4.8,1.43-4.8,5.15,0,6.83-.06,13.66.03,20.49.03,2.52.47,5.04.62,7.56.12,2.11-1.07,2.45-2.9,2.08-1.29-.26-2.78-.58-3.96-.19-3.05,1.02-3.48-.43-3.07-3,.36.3.57.72,1.18,1.91,0-12.59.03-24.25-.05-35.92,0-.96-.77-1.92-1.19-2.88Z"></path>
      <path d="M178.37,283.71c-.68,1.25-1.14,2.6-3.15,1.52-.87-.47-2.22-.27-3.31-.1-3.38.51-4.25-.07-4.19-3.61.15-9.5.46-18.99.63-28.49.06-3.33-.08-6.66.32-10.24,1.45-.24,2.45-.24,3.46-.24q4.99,0,5.01,5.01c.01,10.75-.02,21.5.08,32.25.01,1.3.75,2.59,1.15,3.89Z"></path>
      <path d="M168.42,226.44c4.61-3.39,8.36-2.74,10.57,1.55,1.2,2.33.14,5.96-2.11,7.22-3.17,1.77-7,1.33-8.41-1.23-1.27-2.31-2.39-4.82-.05-7.54Z"></path>
      <path d="M178.42,283.4c-.45-.99-1.19-2.28-1.2-3.58-.1-10.75-.06-21.5-.08-32.25q0-5.01-5.01-5.01c-1.01,0-2.02,0-3.33,0,2.6-.19,5.51-.54,8.4-.42.48.02,1.22,2.14,1.23,3.3.08,12.55.04,25.11-.02,37.97Z"></path>
      <path d="M264.24,255.01c1.95,1.3,1.17,2.15-.79,2.36-4.12.45-8.3.46-12.36,1.18-9.26,1.65-12.09,5.08-12.55,14.39-.04.76-.3,1.52-.63,2.5-3.01-10.1,2.89-16.66,12.86-18.05,4.48-.63,8.95-1.4,13.48-2.39Z"></path>
      <path d="M134.03,245.57c.46.66,1.23,1.62,1.23,2.58.08,11.66.05,23.33.05,35.92-.61-1.2-.82-1.61-1.13-2.19-.13-10.08-.17-20-.1-30.32.16-.57.13-.74,0-.89-.03-1.6-.07-3.21-.05-5.11Z"></path>
      <path d="M216.72,291.86c-.1,3.88-4.48,7.06-9.33,6.45-3.05-.38-6.14-1.04-9.03-2.09-2.8-1.02-4.15-.32-4.93,2.41-.25.88-1.05,1.6-1.8,2.5.23-1.67.5-3.51,1.12-5.22.65-1.79,1.94-2.42,3.97-1.76,2.97.96,6.05,1.59,9.07,2.41,4.81,1.31,8.02-1.02,10.92-4.7Z"></path>
      <path d="M217.02,243.57c.47.75,1.24,1.81,1.26,2.88.09,8.85.1,17.69-.03,26.54-.02,1.08-.98,2.16-1.77,3.26-.02-1.25.43-2.52.44-3.79.07-9.52.05-19.05.1-28.89Z"></path>
      <path d="M312.74,240.79c1.06,1.55,1,1.69-.74,1.58-2.21-.14-4.43-.26-6.64-.47-6.43-.6-11.08,2.43-14.93,7.19-.54.67-1.42,1.08-2.33,1.57,2.96-6.71,8.38-9.9,15.6-10.08,2.96-.07,5.92.28,9.03.2Z"></path>
      <path d="M263.46,241.64c-3.51.25-7.24-.18-10.82.38-4.37.69-8.62,2.21-13.11,3.31,3.22-4.23,8.3-4.12,12.89-4.64,3.56-.41,7.26.43,11.04.95Z"></path>
      <path d="M155.46,240.85c-.67.51-1.52,1.05-2.32,1-6.22-.42-12.21.61-18.31,2.73,1.15-.88,2.5-2.35,4.02-2.55,5.46-.71,10.97-.99,16.62-1.18Z"></path>
      <path d="M160.22,243.65c-1.09-.46-2.13-1.19-3.24-2.12,1.12.36,3.23-.57,3.24,2.12Z"></path>
      <path d="M216.06,276.26c-.14.08-.5.2-.99.24.17-.12.47-.16.99-.24Z"></path>
      <path d="M134.05,250.85c.17-.01.2.15.09.41-.05.08-.13-.25-.09-.41Z"></path>
      <path d="M295.73,259.33c-1.45,4.91-.22,12.91,4.41,16.08,1.25.86,3.08,1.28,4.62,1.22,2.63-.11,5.24-.76,7.99-1.42.08.38.25,1.39-.05,1.57-4.26,2.46-8.74,1.94-12.84-.03-3.66-1.77-5.37-5.2-5.32-9.39.04-3.12,0-6.23,0-10.15.61,1.11.84,1.54,1.18,2.12Z"></path>
    </g>
  </g>
</svg>