<?xml version="1.0"?>
<svg id="Layer_1" data-name="Layer 1" xmlns="http://www.w3.org/2000/svg" viewBox="0 0 811.29 437.69">
  <defs>
    
  </defs>
  <g class="cls-1">
    <path d="M477.73,41.32c.24,23.62-.32,47.28-.02,70.9.1,7.88-.35,18.58.41,26.1.61,6.07,4.97,11.38,11.32,11.74,12.49-.62,25.69.78,38.09,0,6.86-.43,12.21-1.99,13.59-9.47,1.23-6.72,1.41-11.12,4.2-17.7,21.43-50.49,100.72-45.6,113.21,8.78,1.88,8.18.4,15.77,10.62,17.82.6.12,2.92.55,3.29.55h33.64c-.37-2.28-1.48-4.32-2.11-6.53-9.99-34.72,13.89-68.61,49.57-71.47l52.87.02v33.04h-52.09c-2.6,0-8.64,2.94-10.75,4.62-12.65,10.05-11.51,29.71,2.76,37.56,1.44.79,6.17,2.76,7.61,2.76h52.47v34.19l-131.68.02c-8.57-.71-17.08-2.64-24.21-7.63-22.65,33.77-77.49,34.56-99.96.29-7.27,4.42-15.66,6.87-24.18,7.34-15.49.85-31.74-.68-47.31,0-20.8-1.4-29.58-18.09-30.56-37.07l.02-105.86h29.22ZM595.66,117.88c-30.19,3.62-28.31,57.23,7.98,54.46,32.65-2.49,30.13-59.04-7.98-54.46Z"></path>
    <path d="M124.83,41.32v95.09c0,1.22.68,4.55,1.05,5.87,1.82,6.59,7,7.01,12.97,7.78l181.07-.02c5.56-.07,10.96-6.9,10.96-12.1v-41.3h29.6v61.28c0,2.1-2.53,7.79-3.68,9.77-6.82,11.69-20.68,15.53-33.42,16.55l-183.76.02c-5.83-.38-11.43-1.77-17.08-3.08-5.48,21.64-24.49,38.69-46.46,42.51-34.8,6.06-66.48-18.23-70.03-53.09v-44.75s29.21,0,29.21,0v41.3c0,7.83,5.87,17.24,11.96,21.86,19.88,15.06,47.55,1.01,48.41-23.38l-.02-124.3h29.22Z"></path>
    <path d="M69.01,252.35c54.8-3.61,96.68,49.74,73.57,101.19-23.78,52.93-99.88,57.75-131.16,9.16-30.22-46.94,3.15-106.76,57.59-110.35ZM69.4,281.93c-21.35,2.07-36.77,23.14-36.05,43.87,1.17,33.82,40.13,54.69,67.07,31.69,31.11-26.57,11.48-79.68-31.01-75.56Z"></path>
    <path d="M313.97,392.85h-30.95c-.19,0-.81.61-1.35.38v-60.89c0-15.17-18.15-20.11-25.05-6.21-5.29,10.66-2.8,37.75-2.61,50.38.08,5.57-.1,11.16-.02,16.73h-32.29v-60.51c0-10.67-9.85-18.32-19.87-12.94-4.2,2.26-7.81,9.46-7.81,14.09v59.36l-32.29.39-.38-102.19h32.29v8.84c13.77-15.56,41.95-16.19,52.29,3.46.75.51,2.69-2.84,3.26-3.46,15.8-17.43,46.86-15.54,58.69,5.51,8.88,15.81,5.5,45.07,5.68,63.47.01,1.1.41,2.04.42,3.04.09,6.85-.1,13.72-.02,20.57Z"></path>
    <path d="M406.61,299.49v-8.84h32.29l.38,101.81h-32.29v-8.45c-.67-.17-.77.28-1.16.57-8.44,6.46-12.54,9.86-24.01,10.58-61.96,3.93-77.44-81.22-24.8-103.16,15.73-6.55,37.38-5.52,49.58,7.48ZM378.85,317.66c-30.65,3.15-27.41,50.11,4.5,48.29,33.23-1.9,29.87-51.82-4.5-48.29Z"></path>
    <path d="M756.04,352.9l-71.12.38c-.36.31,2.31,3.64,2.68,4.04,8.32,9.21,20.24,8.21,31.23,5.07,3.63-1.04,6.9-2.76,10.41-4.07l20.25,20.91c.16.7-5.08,3.78-6.02,4.31-31.03,17.7-73.86,13.82-89.63-21.68-23.34-52.57,43.99-98.65,84.91-62.57,15.48,13.65,18.43,33.88,17.3,53.6ZM724.9,331.38c-5.2-20.43-35.93-19.99-41.52,0h41.52Z"></path>
    <path d="M554.99,392.08h-32.29v-59.36c0-18.51-24-21.13-31.48-5.72-.65,1.33-2.35,6-2.35,7.25v57.82l-32.29.39.19-102.19h31.71v8.84c17.06-17.32,47.85-15.45,60.17,6.52,9.06,16.17,5.76,42.77,5.93,61.3.01,1.1.41,2.04.42,3.04.08,7.37-.09,14.74-.02,22.11Z"></path>
    <path d="M641.1,289.89v29.2l-24.22.38v34.38c0,4.15,6.3,10.95,10.57,10.95h13.65v26.89c-12.29-.58-25.09,1.9-36.66-3.13-26.45-11.51-18.55-46.08-19.85-69.1h-18.45v-29.58h74.96Z"></path>
    <polygon points="806.02 246.86 806.4 390.93 774.49 391.32 774.11 247.24 806.02 246.86"></polygon>
    <path d="M424.68,96.65l.02,47.08c-.7,17.17-5.49,34.53-24.07,39.33-1.26.33-4.67,1.18-5.74,1.18h-34.02v-34.19h24.03c4.82,0,10.19-7.65,10.19-12.1v-41.3h29.6Z"></path>
    <polygon points="407.57 41.33 434.26 68.08 407.57 95.1 380.88 68.08 407.57 41.33"></polygon>
    <polygon points="603.29 236.13 630.33 262.8 603.57 289.48 576.53 262.8 603.29 236.13"></polygon>
    <rect x="291.29" y="58.23" width="29.6" height="29.2"></rect>
    <rect x="331.26" y="58.23" width="29.22" height="29.2"></rect>
  </g>
</svg>