<?xml version="1.0"?>
<svg id="Layer_1" data-name="Layer 1" xmlns="http://www.w3.org/2000/svg" xmlns:xlink="http://www.w3.org/1999/xlink" viewBox="0 0 1471.11 1417.38">
  <defs>
    
    <clipPath id="clippath">
      <rect class="cls-1" x="-15.98" y="-9.61" width="1503.07" height="1436.61"></rect>
    </clipPath>
    <clipPath id="clippath-1">
      <rect class="cls-1" x="-15.98" y="-9.61" width="1503.07" height="1436.61"></rect>
    </clipPath>
    <clipPath id="clippath-2">
      <rect class="cls-1" x="-15.98" y="-9.61" width="1503.07" height="1436.61"></rect>
    </clipPath>
    <clipPath id="clippath-3">
      <rect class="cls-1" x="-15.98" y="-9.61" width="1503.07" height="1436.61"></rect>
    </clipPath>
  </defs>
  <g class="cls-6">
    <g class="cls-2">
      <path class="cls-5" d="M1302.9,368.57c-70.47,0-75.22,192.51-367.21,192.51-236.52,0-249.27-160.77-267.94-255.24h-16.27l-48.79,97.59c21.2,40.61,36.06,95.65,68.79,144.65-21.55,9.46-68.36,17.95-106.73,17.95-59.63,0-78.67-16.26-75.89-59.63h-21.68c-21.88,93.27-5.42,168.04,86.73,168.04,48.79,0,97.57-21.68,113.83-27.1l14.8-83.88c43.19,55.72,114.52,100.12,253.15,100.12,158.77,0,224.09-63.73,263.37-117.76l-10,44.99c50.34,36.77,107.4,55.67,168.04,65.05,24.26-25.15,40.42-57.76,48.79-97.57h0c27.08-97.59-21.67-189.73-103-189.73M1229.38,501.58c12.9-18.01,24.72-30.01,40.99-30.01,53.13,0,106.17,36.48,123.57,83.89-57.8-13.68-112.85-31.34-164.56-53.88"></path>
      <rect class="cls-5" x="753.63" y="346.72" width="432.83" height="24.05" transform="translate(-50.47 190.71) rotate(-10.95)"></rect>
      <path class="cls-5" d="M484.09,1061.63l.63-106.84c.36-62.04-29.32-99.26-79.42-99.55-26.04-.21-61.8,12.68-83.98,41.6-12.93-27.64-36.59-42.31-68.63-42.5-.16,0-.32,0-.48,0-27.25,0-63.04,13.48-84.93,43.53l.28-46.71-108.45,38.46-.05,8.75,14.24,6.63c15.03,7,18.88,15.04,18.74,39.13l-.68,115.18c-.12,19.81-3.14,31.16-18.75,34.4l-16.9,3.52-.06,10.79,143.1.84.06-10.79-16.86-3.72c-13.43-2.96-15.74-13.52-15.61-34.61l.7-117.99c.16-27.14,18.31-46.76,43.19-46.76h.28c27.24.16,46.88,22.57,46.7,53.29l-.66,111.99c-.13,21.95-2.38,31.59-16.02,34.43l-16.9,3.52-.06,10.79,143.64.85.06-10.8-17.42-3.71c-15.74-3.35-18.45-13.83-18.33-34.62l.63-106.84c.08-14.39-1.41-27.6-4.45-39.26,7.91-11.99,20.71-18.87,35.44-18.7,13.15.08,25.07,5.4,33.55,14.98,8.57,9.69,13.24,23.29,13.15,38.3l-.66,111.99c-.13,21.95-2.39,31.59-16.02,34.43l-16.9,3.52-.07,10.79,143.65.85.06-10.8-17.47-3.72c-15.74-3.35-18.45-13.83-18.32-34.62"></path>
      <path class="cls-5" d="M752.86,1050.4l.72-121.56-.21-2.06h-.14c-3.56-50.25-38.04-74.89-105.35-75.28-57.9-.35-100.44,23.67-113.33,64.24l-.38,1.2,12.99,12.74q7.79,7.63,13.4,13.46c3.16,3.29,8.1,8.42,17.21,17.81l2.9,2.99.6-4.12c6.43-44.57,37.61-67.25,63.71-66.05,15.39.74,32.26,10.54,33.47,35.85l.15,1.15-.22,38.18c-32.21.98-63.4,6.51-90.35,16.05-35.53,13.49-54.39,34.9-54.55,61.92-.11,18.02,6.95,34.24,19.87,45.68,13.03,11.55,30.87,17.71,51.58,17.84.21,0,.41,0,.61,0,30.14,0,58.01-13.19,77.33-36.43,1.48,11.56,7.07,21.35,16.06,27.92,10.98,8.03,25.81,10.09,40.69,5.65l51.7-15.39.04-6.84-14.12-3.13c-19.47-4.34-24.48-10.88-24.36-31.8M672.91,1066.14l-.03.04c-10.27,11.02-19.38,15.47-31.29,15.42-17.8-.11-31.64-17.72-31.51-40.12,0-45.05,41.71-56.04,68.19-58.47l-.45,77.18c-2.08,2.41-3.66,4.32-4.91,5.96"></path>
      <path class="cls-5" d="M1063.52,1052.5l1.89-320.71-108.37,37.89-.06,9.41,15.04.72c15.51.74,18.06,11.54,17.92,35.48l-.23,39.41c-13.04-3.9-24.89-5.98-34.44-6.04-88.16-.52-143.01,54.25-143.54,142.94-.4,67.19,41.04,116.29,98.64,117.11h.85c.14.01.27.02.41.02,23.1,0,55.38-11.4,79.32-43.03l.46,10.06c.52,11.2,5.79,20.82,14.85,27.07,6.6,4.55,14.63,6.9,22.94,6.9,4.7,0,9.5-.75,14.16-2.28l59.17-19.42.04-6.42-15.26-3.15c-19.24-3.96-23.92-9.05-23.82-25.93M947.98,859.98h.16c24.83.15,39.88,17.81,41.28,48.35l-.85,144.08c-8.73,8.46-22.52,18.2-39.77,18.2h-.27c-37.34-.22-56.08-33.98-55.69-100.35.31-52.23,23.02-110.28,55.14-110.28"></path>
      <path class="cls-5" d="M1400.23,1080.27c-19.24-3.96-23.92-9.05-23.82-25.93l1.89-320.71-108.37,37.89-.05,9.4,15.04.72c15.51.74,18.06,11.54,17.92,35.48l-.23,39.4c-13.03-3.9-24.89-5.98-34.44-6.04-.42,0-.82,0-1.24,0-87.28,0-141.77,54.68-142.3,142.94-.19,32.68,9.61,62.4,27.6,83.67,18.09,21.4,43.62,33.27,71.89,33.44l.02-2.04v2.05c.13,0,.26,0,.4,0,23.1,0,55.38-11.4,79.32-43.02l.46,10.06c.52,11.2,5.79,20.82,14.85,27.07,6.6,4.55,14.64,6.9,22.94,6.9,4.71,0,9.5-.75,14.16-2.29l59.17-19.42.04-6.42-15.26-3.15ZM1221.65,896.49c10.55-22.37,24.47-34.67,39.21-34.67h.16c24.83.15,39.88,17.81,41.28,48.35l-.85,144.08c-8.73,8.45-22.52,18.19-39.76,18.19h-.27c-18.04-.11-31.89-8.2-41.16-24.06-9.84-16.82-14.73-42.49-14.53-76.29.16-26.93,5.96-54.49,15.93-75.61"></path>
    </g>
  </g>
  <g class="cls-4">
    <g class="cls-3">
      <path d="M1302.9,368.57c-70.47,0-75.22,192.51-367.21,192.51-236.52,0-249.27-160.77-267.94-255.24h-16.27l-48.79,97.59c21.2,40.61,36.06,95.65,68.79,144.65-21.55,9.46-68.36,17.95-106.73,17.95-59.63,0-78.67-16.26-75.89-59.63h-21.68c-21.88,93.27-5.42,168.04,86.73,168.04,48.79,0,97.57-21.68,113.83-27.1l14.8-83.88c43.19,55.72,114.52,100.12,253.15,100.12,158.77,0,224.09-63.73,263.37-117.76l-10,44.99c50.34,36.77,107.4,55.67,168.04,65.05,24.26-25.15,40.42-57.76,48.79-97.57h0c27.08-97.59-21.67-189.73-103-189.73M1229.38,501.58c12.9-18.01,24.72-30.01,40.99-30.01,53.13,0,106.17,36.48,123.57,83.89-57.8-13.68-112.85-31.34-164.56-53.88"></path>
      <rect x="753.63" y="346.72" width="432.83" height="24.05" transform="translate(-50.47 190.71) rotate(-10.95)"></rect>
      <path d="M484.09,1061.63l.63-106.84c.36-62.04-29.32-99.26-79.42-99.55-26.04-.21-61.8,12.68-83.98,41.6-12.93-27.64-36.59-42.31-68.63-42.5-.16,0-.32,0-.48,0-27.25,0-63.04,13.48-84.93,43.53l.28-46.71-108.45,38.46-.05,8.75,14.24,6.63c15.03,7,18.88,15.04,18.74,39.13l-.68,115.18c-.12,19.81-3.14,31.16-18.75,34.4l-16.9,3.52-.06,10.79,143.1.84.06-10.79-16.86-3.72c-13.43-2.96-15.74-13.52-15.61-34.61l.7-117.99c.16-27.14,18.31-46.76,43.19-46.76h.28c27.24.16,46.88,22.57,46.7,53.29l-.66,111.99c-.13,21.95-2.38,31.59-16.02,34.43l-16.9,3.52-.06,10.79,143.64.85.06-10.8-17.42-3.71c-15.74-3.35-18.45-13.83-18.33-34.62l.63-106.84c.08-14.39-1.41-27.6-4.45-39.26,7.91-11.99,20.71-18.87,35.44-18.7,13.15.08,25.07,5.4,33.55,14.98,8.57,9.69,13.24,23.29,13.15,38.3l-.66,111.99c-.13,21.95-2.39,31.59-16.02,34.43l-16.9,3.52-.07,10.79,143.65.85.06-10.8-17.47-3.72c-15.74-3.35-18.45-13.83-18.32-34.62"></path>
      <path d="M752.86,1050.4l.72-121.56-.21-2.06h-.14c-3.56-50.25-38.04-74.89-105.35-75.28-57.9-.35-100.44,23.67-113.33,64.24l-.38,1.2,12.99,12.74q7.79,7.63,13.4,13.46c3.16,3.29,8.1,8.42,17.21,17.81l2.9,2.99.6-4.12c6.43-44.57,37.61-67.25,63.71-66.05,15.39.74,32.26,10.54,33.47,35.85l.15,1.15-.22,38.18c-32.21.98-63.4,6.51-90.35,16.05-35.53,13.49-54.39,34.9-54.55,61.92-.11,18.02,6.95,34.24,19.87,45.68,13.03,11.55,30.87,17.71,51.58,17.84.21,0,.41,0,.61,0,30.14,0,58.01-13.19,77.33-36.43,1.48,11.56,7.07,21.35,16.06,27.92,10.98,8.03,25.81,10.09,40.69,5.65l51.7-15.39.04-6.84-14.12-3.13c-19.47-4.34-24.48-10.88-24.36-31.8M672.91,1066.14l-.03.04c-10.27,11.02-19.38,15.47-31.29,15.42-17.8-.11-31.64-17.72-31.51-40.12,0-45.05,41.71-56.04,68.19-58.47l-.45,77.18c-2.08,2.41-3.66,4.32-4.91,5.96"></path>
      <path d="M1063.52,1052.5l1.89-320.71-108.37,37.89-.06,9.41,15.04.72c15.51.74,18.06,11.54,17.92,35.48l-.23,39.41c-13.04-3.9-24.89-5.98-34.44-6.04-88.16-.52-143.01,54.25-143.54,142.94-.4,67.19,41.04,116.29,98.64,117.11h.85c.14.01.27.02.41.02,23.1,0,55.38-11.4,79.32-43.03l.46,10.06c.52,11.2,5.79,20.82,14.85,27.07,6.6,4.55,14.63,6.9,22.94,6.9,4.7,0,9.5-.75,14.16-2.28l59.17-19.42.04-6.42-15.26-3.15c-19.24-3.96-23.92-9.05-23.82-25.93M947.98,859.98h.16c24.83.15,39.88,17.81,41.28,48.35l-.85,144.08c-8.73,8.46-22.52,18.2-39.77,18.2h-.27c-37.34-.22-56.08-33.98-55.69-100.35.31-52.23,23.02-110.28,55.14-110.28"></path>
      <path d="M1400.23,1080.27c-19.24-3.96-23.92-9.05-23.82-25.93l1.89-320.71-108.37,37.89-.05,9.4,15.04.72c15.51.74,18.06,11.54,17.92,35.48l-.23,39.4c-13.03-3.9-24.89-5.98-34.44-6.04-.42,0-.82,0-1.24,0-87.28,0-141.77,54.68-142.3,142.94-.19,32.68,9.61,62.4,27.6,83.67,18.09,21.4,43.62,33.27,71.89,33.44l.02-2.04v2.05c.13,0,.26,0,.4,0,23.1,0,55.38-11.4,79.32-43.02l.46,10.06c.52,11.2,5.79,20.82,14.85,27.07,6.6,4.55,14.64,6.9,22.94,6.9,4.71,0,9.5-.75,14.16-2.29l59.17-19.42.04-6.42-15.26-3.15ZM1221.65,896.49c10.55-22.37,24.47-34.67,39.21-34.67h.16c24.83.15,39.88,17.81,41.28,48.35l-.85,144.08c-8.73,8.45-22.52,18.19-39.76,18.19h-.27c-18.04-.11-31.89-8.2-41.16-24.06-9.84-16.82-14.73-42.49-14.53-76.29.16-26.93,5.96-54.49,15.93-75.61"></path>
    </g>
  </g>
</svg>