<?xml version="1.0"?>
<svg id="Layer_1" data-name="Layer 1" xmlns="http://www.w3.org/2000/svg" viewBox="0 0 811.29 437.69">
  <defs>
    
  </defs>
  <g id="g3" class="cls-1">
    <g id="g5">
      <g id="g7">
        <g id="g9">
          <path id="path11" d="M136.27,280.46c-37.19,0-67.34-30.16-67.34-67.36s30.14-67.33,67.34-67.33c13.11,0,25.35,3.74,35.69,10.22l-35.69,57.11,67.19-38.8c-7.3-11.63-17.77-21.65-30.43-29.26-16.11-9.65-38.52-15.61-63.3-15.61-35.35,0-66.36,12.85-83.65,32.08-12.8,14.22-20.43,32.12-20.43,51.59s7.62,37.39,20.43,51.62c17.34,19.26,47.89,32.03,82.65,32.03s65.3-12.78,82.65-32.03c.95-1.06,1.87-2.13,2.74-3.24l-2.62-9.82c-12.19,17.4-32.38,28.8-55.23,28.8"></path>
          <path id="path13" d="M359.03,292.7l-28.2-105.2c-4.53-17-20.01-29.5-38.44-29.5-4.78,0-9.36.85-13.61,2.4l-60.71,22.08h62.44l10.67,39.85c-10.35-8.91-23.83-14.33-38.59-14.33-29.31,0-53.04,19.64-53.04,43.87s23.73,43.9,53.04,43.9c21.1,0,39.76-10.33,51.27-26.2l6.19,23.13h48.98M273.01,276.36c-13.52,0-24.48-10.95-24.48-24.49s10.96-24.48,24.48-24.48,24.49,10.96,24.49,24.48-10.97,24.49-24.49,24.49Z"></path>
          <path id="path15" d="M474.01,158.02c-3.7,0-7.2.82-10.32,2.28l-38.98,18.17c-1.93-11.6-12.01-20.45-24.17-20.45-3.68,0-7.19.82-10.35,2.28l-47.59,22.17h33.46v110.22h48.98v-97.96c0-6.76,5.47-12.26,12.25-12.26s12.25,5.5,12.25,12.26v97.96h48.96v-110.22c0-13.52-10.97-24.46-24.49-24.46"></path>
          <path id="path17" d="M781.17,158.02c-3.71,0-7.23.82-10.4,2.28l-38.94,18.17c-1.92-11.6-12-20.45-24.16-20.45-3.68,0-7.19.82-10.36,2.28l-47.57,22.17h33.45v110.22h48.97v-97.96c0-6.76,5.48-12.26,12.26-12.26s12.23,5.5,12.23,12.26v97.96h49v-110.22c0-13.52-10.98-24.46-24.48-24.46"></path>
          <path id="path19" d="M657.66,227.39c0,38.31-31.05,69.36-69.35,69.36s-69.4-31.05-69.4-69.36,31.07-69.37,69.4-69.37,69.35,31.07,69.35,69.37M591.18,179.07c-2.18-8.16-10.57-13.01-18.73-10.81-8.15,2.19-13.02,10.58-10.83,18.74l23.79,88.7c2.2,8.17,10.57,13.01,18.73,10.85,8.16-2.21,13.01-10.6,10.82-18.76l-23.78-88.71h0Z"></path>
        </g>
      </g>
    </g>
  </g>
</svg>