<?xml version="1.0"?>
<svg id="Layer_1" data-name="Layer 1" xmlns="http://www.w3.org/2000/svg" viewBox="0 0 811.29 437.69">
  <defs>
    
  </defs>
  <g class="cls-1">
    <path d="M486.34,31.54c5.62,16.45,10.99,33.09,13.32,50.42,9.97,74.19-25.67,144.53-81.52,191.08-9.63-19.85-16.28-41.61-18.25-63.72-6.2-69.57,34.27-135.48,86.46-177.78Z"></path>
    <path d="M261.32,31.54c15.74,7.38,31.44,15.06,45.53,25.43,60.31,44.34,86.19,118.83,80.9,191.34-20.97-6.85-41.25-17.18-58.53-31.11-54.37-43.84-73.7-118.73-67.91-185.66Z"></path>
    <path d="M437.89,311.08c-12.71,4.6-25.22,9.53-38.44,12.63-63.05,14.76-122.82-3.94-173.18-42.14-14.04-10.65-28.25-22.7-38.84-36.81,18.43-5.7,37.04-11.38,56.37-13.33,73.98-7.46,145.17,25.68,194.09,79.66Z"></path>
    <path d="M627.98,313.69c-1.51,13.83-15.67,15.75-26.99,12.83-1.93-.5-8.68-4.09-9.18-4.05-.64.05-2.03,2.07-3.09,2.66-8.87,4.91-19.55,2.28-26.72-4.35-2.13,4.62-7.2,6.15-11.89,6.74-19.7-1.63-42.6,2.07-61.91-.03-3.35-.36-7.29-1.95-9.68-4.3-14.37,9.7-33.57,3.25-30.88-16.14,1.38-9.94,13.42-14.81,21.04-19.22,5.37-3.11,7.28-6.61,14.68-5.08,1.12,7.92-4.17,31.49,2.69,36.44.91.65,3.29,1.36,4.45,1.51,15.35,2.03,40.95,1.59,56.49-.03,7.71-.8,8.86-3.22,9.44-10.69.7-9.09-1.23-18.16-.78-27.24h7.46v33.92c4.63,4.83,16.41,7.15,21.28,1.9,5.54-5.96,1.17-27.54,1.82-35.82h8.21s-.44,35.81-.44,35.81c6.47,3.25,20.68,5.23,24.92-2,4-6.81-.35-32.6.85-33.81h8.2c-.78,9.86,1.06,21.28,0,30.94ZM475.91,290.96l-16.77,9.69c-13.54,13.29,2.38,25.91,16.82,19l.5-.73c.03-.31-.55-.57-.55-.76v-27.21Z"></path>
    <path d="M288.06,343.88v23.85c12.7-10.94,31.02-4.27,32.08,13.01.96,15.66-9.26,27.45-25.57,24.83-1.7-.27-5.81-2.53-6.14-2.53-.98.02-5.35,2.42-7.83,1.22.96-20.06,1.49-40.34-.75-60.39h8.2ZM307.93,370.98c-3.95-3.56-17.24-3.76-19.48,1.24-.67,1.5-.77,20.91-.42,23.51.91,6.7,14.72,5.86,18.93,2.46,7.27-5.87,7.93-20.94.98-27.21Z"></path>
    <path d="M430.44,343.88v24.6c6.61-5.43,14.44-7.9,22.76-4.5,2.91,1.19,7.05,5.5,7.05,8.6v31.68h-7.46c-1.23-8.67,5.86-33.33-6.51-35.6-5.72-1.05-11.67.7-15.85,4.67v30.94h-7.46c.29-20.13,1.96-40.38-.75-60.38h8.2Z"></path>
    <path d="M363.35,384.14l-30.57.74c.35,15.76,17.84,17.15,29.81,13.42l-.84,5.86c-20.47,7.04-43.41-5.14-34.55-28.96,7.89-21.22,40.36-15.46,36.14,8.93ZM355.9,379.67c2.09-16.95-22.39-15.53-23.13-.38-.08,1.56,0,.96,1.11,1.12,6.82,1,14.96-1.75,22.02-.75Z"></path>
    <path d="M416.28,405.01h-6.72s-.38-3.74-.38-3.74c-8.6,6.22-28.48,7.67-27.98-7.05.43-12.53,16.88-14.3,26.39-13.92l.89-.59c3.03-14.99-16.02-11.46-25.01-9.74-.12-1.62,0-4.66,1.5-5.57,1.6-.98,13.55-2.01,16-1.86,7.01.42,13.68,3.05,14.55,10.79,1.16,10.37-1.26,21.32.75,31.69ZM408.82,384.88c-6.51-.33-19.92-.41-20.19,8.57-.3,9.96,14.84,7.1,20.19,2.99v-11.55Z"></path>
    <path d="M372.29,374.44c-1.31-.33-1.63-3.28-1.88-4.44-1.07-4.83-3.61-19.23-2.42-23.35.84-2.92,4.86-3.9,6.91-1.26,3.56,4.57-1.69,23.09-2.61,29.05Z"></path>
    <path d="M551.95,277.54l1.1-8.22c3.1-2.4,7.11-2.4,10.83-2.22v2.23c-10.7-.8-12.6,5.92-.75,5.22v2.98h-11.18Z"></path>
    <path d="M612.15,337.74c-2.82,2.81-9.34-.04-6.91-5.04,2.72-5.61,11.03.94,6.91,5.04Z"></path>
    <path d="M571.06,330.66c5.62-.6,5.93,7.4,1.35,8.03-6.45.89-6.6-7.47-1.35-8.03Z"></path>
    <path d="M476.09,275.12c-5.35-5.3,7.81-10.69,7.34-2.43-.22,3.94-5.36,4.4-7.34,2.43Z"></path>
    <path d="M584.57,337.74c-3.33,3.33-10.1-1.73-6.14-5.77,4.03-4.12,9.73,2.19,6.14,5.77Z"></path>
    <path d="M467.49,268.74c7.23-2.17,8.09,8.54.63,7.31-3.63-.6-3.6-6.42-.63-7.31Z"></path>
  </g>
</svg>